<?xml version="1.0" encoding="utf-8"?>
<!-- Generator: Adobe Illustrator 26.0.3, SVG Export Plug-In . SVG Version: 6.00 Build 0)  -->
<svg version="1.1" id="Layer_1" xmlns="http://www.w3.org/2000/svg" xmlns:xlink="http://www.w3.org/1999/xlink" x="0px" y="0px"
	 viewBox="0 0 491.2 644.6" style="enable-background:new 0 0 491.2 644.6;" xml:space="preserve">
<style type="text/css">
	.st0{display:none;fill:#939598;}
	.st1{fill:none;stroke:#989898;stroke-width:10;stroke-linecap:round;stroke-linejoin:round;stroke-miterlimit:10;}
	.st2{fill:none;stroke:#989898;stroke-width:10;stroke-linecap:round;stroke-linejoin:round;}
	.st3{display:none;fill:#FFFFFF;}
	.st4{fill:#ACAEB1;stroke:#989898;stroke-width:10;stroke-linecap:round;stroke-linejoin:round;}
	.st5{fill:#FFFFFF;stroke:#989898;stroke-width:10;stroke-linecap:round;stroke-linejoin:round;}
</style>
<g id="color">
	<polygon class="st0" points="-143.2,8.3 286.9,55.4 286.9,181.6 -142.6,146 	"/>
	<polygon class="st0" points="-142.6,146 286.9,180.6 286.9,306.8 -142,288.3 	"/>
	<polygon class="st0" points="-142,282.1 286.9,300.5 286.9,426.7 -142,426.7 	"/>
	<polyline class="st0" points="392.5,428.5 643.6,436.5 641.9,735.5 392.6,676.4 	"/>
	<polygon class="st0" points="-142,426.7 286.4,426.7 286.4,670.9 -142,707 	"/>
	<polygon class="st0" points="-142.5,-39.8 287.3,11.5 286.9,62.4 -142.3,14.3 	"/>
	<polygon class="st0" points="393.6,5.2 644.9,-69 644.9,-5.2 393.6,60.2 	"/>
	<polygon class="st0" points="393.6,60.2 644.9,-5.3 643.4,135 393.6,181 	"/>
	<polygon class="st0" points="393.6,180.4 643.4,135 643.6,436.5 392.5,428.5 	"/>
</g>
<g id="outline">
	<line class="st1" x1="266.1" y1="496.2" x2="266.6" y2="166.8"/>
	<line class="st1" x1="51.6" y1="140.9" x2="51.9" y2="514.3"/>
	<line class="st1" x1="319.6" y1="269.8" x2="444.5" y2="246.8"/>
	<line class="st1" x1="319.6" y1="210.9" x2="445.3" y2="178.2"/>
	<line class="st1" x1="319.6" y1="328.8" x2="444.3" y2="320.2"/>
	<line class="st1" x1="319.1" y1="384.5" x2="444.7" y2="388.5"/>
	<line class="st1" x1="319.1" y1="441.8" x2="443.8" y2="460.1"/>
	<line class="st1" x1="266.3" y1="210" x2="51.7" y2="185.9"/>
	<line class="st1" x1="266.3" y1="328.3" x2="51.9" y2="319.4"/>
	<path class="st1" d="M266.3,383.6l-214.5,3.5L266.3,383.6z"/>
	<line class="st1" x1="266.1" y1="440.8" x2="51.9" y2="451.1"/>
	<line class="st2" x1="319.9" y1="162.9" x2="318.4" y2="499"/>
	<polyline id="handrail_fill" class="st3" points="-190.8,472.6 -209.8,473.3 -212.3,476.8 -211.3,484.3 -209.3,487.3 18.7,480.8 
		326.3,470.4 333,470.3 335.3,465.6 334.2,462.4 331,460.4 312.8,461 	"/>
	<path class="st1" d="M462.1,394.1"/>
	<path class="st1" d="M299.4,380.9"/>
	<path class="st1" d="M299.9,333.3"/>
	<path class="st2" d="M461.8,183.7"/>
	<path class="st2" d="M299.5,212.2"/>
	<path class="st2" d="M293.8,212.4"/>
	<path class="st2" d="M293.9,180.2"/>
	<path class="st1" d="M292.8,380.8"/>
	<path class="st1" d="M183.3,383.1"/>
	<path class="st1" d="M293.4,333.7"/>
	<path class="st2" d="M11.5,147.6"/>
	<path class="st1" d="M162.1,382.8"/>
	<path class="st1" d="M10.2,385.6"/>
	<path class="st1" d="M10.9,332.8"/>
	<path class="st1" d="M182.8,389.3"/>
	<path class="st1" d="M183.3,156.6"/>
	<g>
		<path class="st1" d="M162,389.7"/>
		<path class="st1" d="M162.7,154.1"/>
	</g>
	<path class="st2" d="M10.7,480.3"/>
	<path class="st1" d="M293.3,459.5"/>
	<path class="st2" d="M10.9,526.5"/>
	<g>
		<g>
			<path class="st4" d="M441.4,499.4"/>
			<polygon class="st2" points="480.3,565.1 480.1,104 453.1,111.5 466.5,114 466.5,119.9 296.2,170.2 14.5,136.3 14,130 
				21.1,124.2 10.6,124.1 9.7,542.5 293,511.5 296.1,509.2 298.8,512.3 			"/>
			<polygon class="st2" points="485.1,564.3 486,87.2 109.7,6.7 6.3,104 5.5,539.1 118.2,636.4 			"/>
			<polygon class="st5" points="14,130 117.3,47.8 466.5,114 466.5,119.9 117.6,57.4 14.6,136 			"/>
			<line class="st2" x1="381.6" y1="145" x2="67.9" y2="95.4"/>
			<line class="st2" x1="264.8" y1="83.7" x2="123.2" y2="149.4"/>
			<line class="st2" x1="375.6" y1="103.6" x2="219.1" y2="160.9"/>
			<polyline class="st1" points="105.4,125.2 104.8,125.2 103.9,125.4 103.3,125.4 102.4,125.5 101.6,125.5 100.9,125.5 
				100.1,125.5 99.2,125.5 98.3,125.5 97.7,125.5 96.8,125.5 96.2,125.5 95.6,125.5 94.9,125.5 94.3,125.5 93.6,125.3 93.2,125.3 
				92.8,125.3 92.6,125.1 92.1,125.1 91.9,125.1 91.9,124.9 91.9,124.6 92.1,124.6 92.6,124.4 92.8,124.4 93.2,124.2 93.6,124.2 
				94.3,124 94.9,124 95.6,124 96.2,124 96.8,123.8 97.7,123.8 98.6,123.8 99.2,123.8 100,123.8 100.9,123.6 101.8,123.6 
				102.6,123.5 103.3,123.8 104.1,123.8 104.8,123.7 105.4,123.7 106,123.7 106.7,123.7 107.1,124 107.5,123.9 108,123.9 
				108.2,124.2 108.4,124.2 108.6,124.2 108.6,124.4 108.6,124.6 108.4,124.6 108.2,124.8 108,124.8 107.5,124.8 107.1,125 
				106.5,125 106,125.2 105.4,125.2 			"/>
			<polyline class="st1" points="213.9,138.3 213.3,138.3 212.4,138.5 211.8,138.5 210.9,138.5 210.1,138.5 209.4,138.5 
				208.6,138.5 207.7,138.5 206.8,138.5 206.2,138.5 205.4,138.5 204.7,138.5 204.1,138.5 203.4,138.5 202.8,138.5 202.1,138.3 
				201.7,138.3 201.3,138.3 201.1,138.1 200.6,138.1 200.4,138.1 200.4,137.9 200.4,137.7 200.6,137.7 201.1,137.5 201.3,137.5 
				201.7,137.3 202.1,137.3 202.8,137 203.4,137 204.1,137 204.7,137 205.3,136.8 206.2,136.8 207.1,136.8 207.7,136.8 208.6,136.8 
				209.4,136.6 210.3,136.6 211.1,136.6 211.8,136.8 212.6,136.8 213.3,136.8 213.9,136.8 214.5,136.8 215.2,136.8 215.6,137 
				216,137 216.5,137 216.7,137.2 216.9,137.2 217.1,137.2 217.1,137.4 217.1,137.6 216.9,137.6 216.7,137.8 216.5,137.8 216,137.8 
				215.6,138.1 215,138.1 214.5,138.3 213.9,138.3 			"/>
			<polyline class="st1" points="166,88 165.3,88 164.7,88 163.8,88.2 163.2,88.2 162.3,88.2 161.5,88.2 160.6,88.2 160,88.2 
				159.1,88.2 158.3,88.2 157.6,88.2 156.8,88.2 156.1,88 155.5,88 154.9,88 154.4,88 154,87.8 153.6,87.8 153.3,87.6 153.1,87.6 
				152.9,87.6 			"/>
			<polyline class="st1" points="168.3,87.3 168.1,87.3 167.9,87.5 167.5,87.5 167,87.7 166.4,87.7 166,88 			"/>
			<polyline class="st1" points="167,88.8 166.2,88.8 165.5,89 164.7,89 163.8,89 163.2,89 162.1,89.2 161.3,89.3 160.4,89.3 
				159.6,89.3 158.7,89.3 157.9,89.3 157,89.1 156.1,89.1 155.5,89.1 154.6,89.1 154,88.9 153.6,88.9 152.9,88.9 152.5,88.7 
				152.1,88.7 151.9,88.4 151.6,88.4 151.4,88.2 151.4,88 151.6,88 151.9,87.8 152.1,87.8 152.5,87.6 152.9,87.6 153.3,87.4 
				154,87.4 154.6,87.2 155.5,87.2 156.1,87.2 157,86.9 157.8,86.9 158.7,86.9 159.5,86.9 160.4,86.9 161.5,86.9 162.3,86.9 
				163.2,86.9 164,86.9 164.9,86.9 165.8,86.9 166.4,87.1 167,87.1 167.7,87.1 168.3,87.3 168.7,87.3 169.2,87.3 169.4,87.5 
				169.8,87.5 169.8,87.7 170,87.7 170,87.9 169.8,88.2 169.6,88.2 169.4,88.4 169.2,88.4 168.8,88.6 168.1,88.6 167.7,88.6 
				167,88.8 			"/>
			<polyline class="st1" points="289.3,109.6 288.7,109.6 287.8,109.8 287.2,109.8 286.3,109.8 285.4,109.8 284.8,109.8 
				283.9,109.8 283.1,109.8 282.2,109.8 281.6,109.8 280.7,109.8 280.1,109.8 279.5,109.8 278.8,109.8 278.2,109.8 277.5,109.6 
				277.1,109.6 276.7,109.6 276.5,109.4 276,109.4 275.8,109.4 275.8,109.2 275.8,109 276,109 276.5,108.8 276.7,108.8 277.1,108.6 
				277.5,108.6 278.2,108.3 278.8,108.3 279.4,108.3 280.1,108.3 280.7,108.1 281.6,108.1 282.4,108.1 283.1,108.1 283.9,108.1 
				284.8,107.9 285.7,107.9 286.5,107.9 287.1,108.1 288,108.1 288.6,108.1 289.3,108.1 289.9,108.1 290.6,108.1 291,108.3 
				291.4,108.3 291.9,108.3 292.1,108.5 292.3,108.5 292.5,108.5 292.5,108.7 292.5,108.9 292.3,108.9 292.1,109.1 291.9,109.1 
				291.4,109.1 291,109.4 290.4,109.4 289.9,109.6 289.3,109.6 			"/>
			<polyline class="st1" points="300,151.1 299.6,151.1 298.9,151.1 298.5,151.1 297.8,151.2 297.2,151.2 296.6,151.4 295.9,151.4 
				295.3,151.4 294.6,151.4 294,151.4 293.4,151.4 292.7,151.4 292.1,151.2 291.4,151.2 291,151.2 290.4,151.2 289.9,151.2 
				289.5,151.2 289.1,151 288.7,151 288.4,151 288.2,151 288,150.8 288,150.6 288.2,150.6 288.4,150.6 288.7,150.3 289.1,150.3 
				289.5,150.3 289.9,150.3 290.4,150.1 291,150.1 291.4,150.1 292.1,150.1 292.7,150.1 293.4,150.1 294,150.1 294.6,150.1 
				295.3,150.1 295.9,150.1 296.6,150.1 297.2,150.1 297.8,150.1 298.5,150.1 299.1,150.1 299.6,150.1 300,150.3 300.4,150.3 
				300.8,150.3 301.1,150.3 301.3,150.5 301.5,150.5 301.7,150.5 301.7,150.7 301.5,150.7 301.3,150.9 301.1,150.9 300.6,150.9 
				300.4,150.9 300,151.1 			"/>
			<polyline class="st1" points="385.1,125.9 384.5,125.9 383.6,126.1 383,126.1 382.1,126.1 381.3,126.1 380.6,126.1 379.8,126.1 
				378.9,126.1 378,126.1 377.4,126.1 376.6,126.1 375.9,126.1 375.3,126.2 374.6,126.2 374,126.2 373.3,125.9 372.9,125.9 
				372.5,125.9 372.3,125.7 371.8,125.7 371.6,125.7 371.6,125.5 371.6,125.3 371.8,125.3 372.3,125.1 372.5,125.1 372.9,124.9 
				373.3,124.9 374,124.7 374.6,124.7 375.3,124.7 375.9,124.7 376.5,124.5 377.4,124.4 378.3,124.4 378.9,124.4 379.8,124.4 
				380.6,124.2 381.5,124.2 382.3,124.2 383,124.4 383.8,124.4 384.5,124.4 385.1,124.4 385.7,124.4 386.4,124.4 386.8,124.6 
				387.2,124.6 387.7,124.6 387.9,124.8 388.1,124.8 388.3,124.8 388.3,125 388.3,125.3 388.1,125.3 387.9,125.5 387.7,125.5 
				387.2,125.5 386.8,125.7 386.2,125.7 385.7,125.9 385.1,125.9 			"/>
			<line class="st2" x1="117.6" y1="57.4" x2="117.3" y2="47.8"/>
			<line class="st2" x1="480.1" y1="104" x2="485.8" y2="107"/>
			<line class="st2" x1="486" y1="87.2" x2="419.7" y2="105.2"/>
			<line class="st2" x1="6.3" y1="104" x2="39.5" y2="109.6"/>
			<line class="st2" x1="10.6" y1="124.1" x2="6.7" y2="126.1"/>
		</g>
		<line class="st1" x1="296.1" y1="509.2" x2="296.2" y2="170.2"/>
	</g>
	<path class="st1" d="M10.6,384.4"/>
	<path class="st1" d="M293.9,378.9"/>
	<path class="st1" d="M296.6,399"/>
	<path class="st1" d="M293.6,399.1"/>
	<path class="st1" d="M293.6,399.1"/>
	<path class="st1" d="M10.7,410.6"/>
	<path class="st1" d="M480.3,394.6"/>
	<path class="st1" d="M299.6,379.3"/>
	<path class="st1" d="M479.9,420.3"/>
	<path class="st1" d="M299.9,399.6"/>
	<line class="st1" x1="293.4" y1="511.5" x2="293.6" y2="169.9"/>
	<line class="st1" x1="298.9" y1="170" x2="298.8" y2="512.3"/>
	<line class="st2" x1="298.7" y1="494.4" x2="480.4" y2="537.3"/>
	<line class="st2" x1="9.8" y1="517.8" x2="293.4" y2="493.9"/>
	<path class="st1" d="M300.1,288.3"/>
	<path class="st1" d="M297.4,191"/>
	<path class="st1" d="M300.1,208.7"/>
	<polyline class="st2" points="319.9,162.9 445.3,126.3 443.8,528.5 	"/>
	<line class="st2" x1="51.6" y1="251.3" x2="266.3" y2="269.1"/>
</g>
</svg>
