<?xml version="1.0" encoding="utf-8"?>
<!-- Generator: Adobe Illustrator 26.0.3, SVG Export Plug-In . SVG Version: 6.00 Build 0)  -->
<svg version="1.1" id="Layer_1" xmlns="http://www.w3.org/2000/svg" xmlns:xlink="http://www.w3.org/1999/xlink" x="0px" y="0px"
	 viewBox="0 0 490.6 639.7" style="enable-background:new 0 0 490.6 639.7;" xml:space="preserve">
<style type="text/css">
	.st0{fill:none;}
	.st1{fill:none;stroke:#999999;stroke-width:10;stroke-linecap:round;stroke-linejoin:round;}
</style>
<g id="Layer_2_00000129917149425469274800000011426198690479882147_">
	<g id="Layer_1-2">
		<g id="colors">
			<path class="st0" d="M293,255.9l-40,0.1l0.1,30.6h-41.4c-2.4,0-0.4,33.1-0.4,33.1l-47.1,0.2v28.6l-50,1l0.1,33.2l-52.2,2.1
				L62,437l-52.4,2.9l-0.3,77.5l283.5-24v-1.7l0.3-214.6"/>
			<polyline class="st0" points="10.2,122.6 9.7,439.9 62,437.1 62.1,385 114.2,382.5 114.2,349.4 164.2,348.5 164,319.8 
				211.3,319.5 211.4,286.6 253.2,286.5 253.2,286.5 252.8,256.1 292.9,255.8 293,168.3 14,134.7 13.3,128.8 20.4,122.6 			"/>
			<polyline class="st0" points="479.8,379.1 479.8,537.1 298.1,493.5 298.1,493.5 298.5,206.6 			"/>
			<path class="st0" d="M298.5,206.8l40.9-5.2l0.2-21.4l46.9-9.7c0.4,0-0.2,47.9-0.2,47.9l46.4-5l-0.1,53.2l47.2-2v115.8"/>
			<polyline class="st0" points="479.5,102.6 479.5,264.5 432.5,266.5 432.8,213.4 386.2,218.4 386.7,170.5 340.4,180.5 340.1,202 
				298.5,207 298.5,167.7 466,118.2 466,112.3 452.7,109.8 			"/>
		</g>
		<g id="outline">
			<line class="st1" x1="386.3" y1="218.4" x2="432.6" y2="213.4"/>
			<line class="st1" x1="386.7" y1="142" x2="384.3" y2="514.2"/>
			<line class="st1" x1="340.6" y1="155.3" x2="338.1" y2="502.9"/>
			<line class="st1" x1="298.5" y1="207" x2="340.1" y2="202"/>
			<line class="st1" x1="340.5" y1="180.5" x2="386.4" y2="170.6"/>
			<line class="st1" x1="432.6" y1="266.5" x2="479.7" y2="264.5"/>
			<line class="st1" x1="433" y1="128" x2="431.8" y2="525.6"/>
			<line class="st1" x1="62.2" y1="384.8" x2="114.2" y2="382.5"/>
			<line class="st1" x1="9.7" y1="439.9" x2="62" y2="437.1"/>
			<line class="st1" x1="62" y1="140.4" x2="62" y2="512.8"/>
			<line class="st1" x1="163.4" y1="152.6" x2="164.9" y2="503.9"/>
			<line class="st1" x1="252.5" y1="163.3" x2="254.2" y2="496.6"/>
			<line class="st1" x1="211.8" y1="158.7" x2="210.8" y2="500.3"/>
			<line class="st1" x1="114.2" y1="349.4" x2="164.1" y2="348.5"/>
			<line class="st1" x1="164.2" y1="319.9" x2="211.3" y2="319.6"/>
			<line class="st1" x1="211.4" y1="286.5" x2="253" y2="286.6"/>
			<line class="st1" x1="253" y1="256" x2="293.1" y2="255.7"/>
			<line class="st1" x1="114.2" y1="146.6" x2="114.2" y2="508.6"/>
			<polygon class="st1" points="479.8,563.4 479.6,102.3 452.7,109.8 466,112.3 466,118.2 295.8,168.5 14.1,134.6 13.5,128.3 
				20.7,122.5 10.2,122.4 9.3,540.8 292.6,509.8 295.7,507.5 298.3,510.6 			"/>
			<polygon class="st1" points="484.7,562.6 485.6,85.5 109.3,5 5.9,102.3 5,537.4 117.8,634.7 			"/>
			<polygon class="st1" points="13.5,128.3 116.9,46.1 466,112.3 466,118.2 117.2,55.7 14.2,134.3 			"/>
			<line class="st1" x1="381.1" y1="143.3" x2="67.4" y2="93.7"/>
			<line class="st1" x1="264.3" y1="82" x2="122.8" y2="147.7"/>
			<line class="st1" x1="375.1" y1="101.9" x2="218.7" y2="159.2"/>
			<polyline class="st1" points="104.9,123.5 104.3,123.5 103.4,123.7 102.8,123.7 102,123.7 101.1,123.7 100.5,123.7 99.6,123.7 
				98.8,123.8 97.9,123.8 97.3,123.8 96.4,123.8 95.8,123.8 95.2,123.8 94.5,123.8 93.8,123.8 93.2,123.6 92.8,123.6 92.3,123.6 
				92.2,123.4 91.7,123.4 91.5,123.4 91.5,123.1 91.5,122.9 91.7,122.9 92.2,122.7 92.3,122.7 92.8,122.5 93.2,122.5 93.8,122.3 
				94.5,122.3 95.1,122.3 95.8,122.3 96.4,122.1 97.3,122.1 98.1,122.1 98.8,122.1 99.6,122.1 100.4,121.8 101.3,121.8 102.2,121.8 
				102.8,122 103.7,122 104.3,122 104.9,122 105.6,122 106.3,122 106.7,122.2 107.1,122.2 107.6,122.2 107.8,122.4 107.9,122.4 
				108.2,122.4 108.2,122.7 108.2,122.9 107.9,122.9 107.8,123.1 107.6,123.1 107.1,123.1 106.7,123.3 106,123.3 105.6,123.5 
				104.9,123.5 			"/>
			<polyline class="st1" points="213.5,136.6 212.8,136.6 212,136.8 211.3,136.8 210.5,136.8 209.7,136.8 209,136.8 208.2,136.8 
				207.3,136.8 206.4,136.8 205.8,136.8 204.9,136.8 204.3,136.8 203.7,136.8 203,136.8 202.3,136.8 201.7,136.6 201.3,136.6 
				200.8,136.6 200.7,136.4 200.2,136.4 200,136.4 200,136.2 200,136 200.2,136 200.7,135.8 200.8,135.8 201.3,135.6 201.7,135.5 
				202.3,135.3 203,135.3 203.7,135.3 204.3,135.3 204.9,135.1 205.8,135.1 206.7,135.1 207.3,135.1 208.2,135.1 209,134.9 
				209.8,134.9 210.7,134.9 211.3,135.1 212.2,135.1 212.8,135.1 213.4,135.1 214.1,135.1 214.8,135.1 215.2,135.3 215.6,135.3 
				216,135.3 216.3,135.5 216.4,135.5 216.7,135.5 216.7,135.7 216.7,135.9 216.4,135.9 216.3,136.1 216,136.1 215.6,136.1 
				215.2,136.3 214.6,136.3 214.1,136.6 213.5,136.6 			"/>
			<polyline class="st1" points="165.6,86.2 164.9,86.3 164.3,86.3 163.4,86.5 162.8,86.5 161.9,86.5 161,86.5 160.2,86.5 
				159.6,86.5 158.7,86.5 157.8,86.5 157.2,86.5 156.3,86.5 155.7,86.3 155,86.3 154.4,86.3 154,86.3 153.6,86.1 153.2,86.1 
				152.9,85.9 152.7,85.9 152.5,85.9 			"/>
			<polyline class="st1" points="167.9,85.6 167.7,85.6 167.4,85.8 167,85.8 166.6,86 165.9,86 165.6,86.2 			"/>
			<polyline class="st1" points="166.6,87.1 165.8,87.1 165.1,87.3 164.3,87.3 163.4,87.3 162.8,87.3 161.7,87.5 160.8,87.5 
				160,87.5 159.2,87.5 158.3,87.5 157.4,87.6 156.6,87.3 155.7,87.3 155,87.4 154.2,87.4 153.6,87.1 153.2,87.1 152.5,87.2 
				152,86.9 151.7,86.9 151.4,86.7 151.2,86.7 151,86.5 151,86.3 151.2,86.3 151.4,86.1 151.7,86.1 152,85.9 152.5,85.9 152.9,85.7 
				153.6,85.7 154.2,85.4 155,85.4 155.7,85.4 156.6,85.2 157.4,85.2 158.3,85.2 159.1,85.2 159.9,85.2 161,85.2 161.9,85.2 
				162.8,85.2 163.6,85.2 164.4,85.2 165.3,85.2 165.9,85.4 166.6,85.4 167.3,85.4 167.9,85.6 168.3,85.6 168.8,85.6 168.9,85.8 
				169.4,85.8 169.4,86 169.6,86 169.6,86.2 169.4,86.4 169.2,86.4 168.9,86.7 168.8,86.7 168.3,86.9 167.7,86.9 167.3,86.9 
				166.6,87.1 			"/>
			<polyline class="st1" points="288.8,107.9 288.2,107.9 287.3,108.1 286.7,108.1 285.8,108.1 285,108.1 284.3,108.1 283.5,108.1 
				282.6,108.1 281.8,108.1 281.1,108.1 280.3,108.1 279.6,108.1 279,108.1 278.4,108.1 277.8,108.1 277.1,107.9 276.7,107.9 
				276.3,107.9 276,107.7 275.6,107.7 275.4,107.7 275.4,107.5 275.4,107.3 275.6,107.3 276,107.1 276.3,107.1 276.7,106.9 
				277.1,106.9 277.8,106.6 278.3,106.6 279,106.6 279.6,106.6 280.3,106.4 281.1,106.4 282,106.4 282.6,106.4 283.5,106.4 
				284.3,106.2 285.2,106.2 286,106.2 286.7,106.4 287.6,106.4 288.2,106.4 288.8,106.4 289.5,106.4 290.1,106.4 290.6,106.6 
				291,106.6 291.4,106.6 291.6,106.8 291.8,106.8 292,106.8 292,107 292,107.2 291.8,107.2 291.6,107.4 291.5,107.4 291,107.4 
				290.6,107.6 290,107.6 289.5,107.9 288.8,107.9 			"/>
			<polyline class="st1" points="299.6,149.4 299.1,149.4 298.5,149.4 298,149.4 297.4,149.4 296.8,149.4 296.1,149.7 295.5,149.7 
				294.8,149.7 294.2,149.7 293.6,149.7 293,149.7 292.3,149.7 291.6,149.5 291,149.5 290.6,149.5 290,149.5 289.5,149.5 
				289.1,149.5 288.6,149.3 288.3,149.3 288,149.3 287.8,149.3 287.6,149.1 287.6,148.8 287.8,148.8 288,148.8 288.2,148.6 
				288.6,148.6 289.1,148.6 289.5,148.6 290,148.4 290.6,148.4 291,148.4 291.6,148.4 292.3,148.4 292.9,148.4 293.6,148.4 
				294.2,148.4 294.8,148.4 295.5,148.4 296.1,148.4 296.8,148.4 297.4,148.4 298,148.4 298.7,148.4 299.1,148.4 299.6,148.6 
				300,148.6 300.4,148.6 300.6,148.6 300.8,148.8 301,148.8 301.3,148.8 301.3,149 301,149 300.8,149.2 300.6,149.2 300.2,149.2 
				300,149.2 299.6,149.4 			"/>
			<polyline class="st1" points="384.6,124.2 384,124.2 383.2,124.4 382.6,124.4 381.7,124.4 380.8,124.4 380.2,124.4 379.3,124.4 
				378.5,124.4 377.6,124.4 377,124.4 376.1,124.4 375.5,124.4 374.8,124.4 374.2,124.4 373.6,124.4 372.9,124.2 372.5,124.2 
				372,124.2 371.8,124 371.4,124 371.2,124 371.2,123.8 371.2,123.6 371.4,123.6 371.8,123.4 372,123.4 372.5,123.2 372.9,123.2 
				373.6,123 374.2,123 374.8,123 375.5,123 376.1,122.7 377,122.7 377.8,122.7 378.5,122.7 379.3,122.7 380.2,122.5 381,122.5 
				381.9,122.5 382.6,122.7 383.4,122.7 384,122.7 384.6,122.7 385.3,122.7 386,122.7 386.4,122.9 386.8,122.9 387.3,122.9 
				387.5,123.1 387.6,123.1 387.9,123.1 387.9,123.3 387.9,123.5 387.6,123.5 387.5,123.8 387.3,123.8 386.8,123.8 386.4,124 
				385.8,124 385.3,124.2 384.6,124.2 			"/>
			<line class="st1" x1="117.2" y1="55.7" x2="116.9" y2="46.1"/>
			<line class="st1" x1="479.6" y1="102.3" x2="485.3" y2="105.3"/>
			<line class="st1" x1="485.6" y1="85.5" x2="419.3" y2="103.5"/>
			<line class="st1" x1="5.9" y1="102.3" x2="39.1" y2="107.8"/>
			<line class="st1" x1="10.2" y1="122.4" x2="5.9" y2="124.7"/>
			<line class="st1" x1="295.7" y1="507.5" x2="295.8" y2="168.5"/>
			<line class="st1" x1="292.8" y1="509.5" x2="293.2" y2="168.2"/>
			<line class="st1" x1="298.5" y1="167.7" x2="298.1" y2="510.4"/>
			<line class="st1" x1="298.3" y1="493.7" x2="479.8" y2="537.1"/>
			<line class="st1" x1="9.2" y1="517.5" x2="292.8" y2="493.3"/>
		</g>
	</g>
</g>
</svg>
