<?xml version="1.0" encoding="utf-8"?>
<!-- Generator: Adobe Illustrator 26.0.3, SVG Export Plug-In . SVG Version: 6.00 Build 0)  -->
<svg version="1.1" id="Layer_1" xmlns="http://www.w3.org/2000/svg" xmlns:xlink="http://www.w3.org/1999/xlink" x="0px" y="0px"
	 viewBox="0 0 489.8 643" style="enable-background:new 0 0 489.8 643;" xml:space="preserve">
<style type="text/css">
	.st0{fill:none;stroke:#989898;stroke-width:10;stroke-linecap:round;stroke-linejoin:round;stroke-miterlimit:10;}
	.st1{fill:none;stroke:#989898;stroke-width:10;stroke-linecap:round;stroke-linejoin:round;}
	.st2{fill:#FFFFFF;stroke:#989898;stroke-width:10;stroke-linecap:round;stroke-linejoin:round;}
	.st3{display:none;}
	.st4{display:inline;fill:none;stroke:#000000;}
	.st5{display:inline;}
	.st6{fill:none;stroke:#E6E7E8;stroke-width:2;}
	.st7{fill:none;}
	.st8{fill:#E6E7E8;}
	.st9{font-family:'Arial-BoldMT';}
	.st10{font-size:26.25px;}
	.st11{fill:none;stroke:#000000;stroke-width:2;}
	.st12{display:inline;fill:none;stroke:#000000;stroke-width:2;}
	.st13{display:inline;fill:none;stroke:#000000;stroke-width:1.9999;stroke-miterlimit:3.9999;}
	.st14{font-size:30px;}
</style>
<g id="outline">
	<line class="st0" x1="384.5" y1="104.2" x2="384.5" y2="104"/>
	<line class="st0" x1="384.5" y1="143.9" x2="384.3" y2="514.7"/>
	<line class="st0" x1="405.8" y1="519.7" x2="405.8" y2="137.2"/>
	<line class="st0" x1="331.1" y1="158.4" x2="331.1" y2="502"/>
	<line class="st0" x1="166.4" y1="154.9" x2="167" y2="504.5"/>
	<g>
		<line class="st0" x1="202.4" y1="159.5" x2="202.2" y2="501.5"/>
		<line class="st0" x1="99.8" y1="146.7" x2="99.3" y2="510.3"/>
	</g>
	<path class="st0" d="M297.8,380.9"/>
	<path class="st0" d="M298.3,333.2"/>
	<path class="st1" d="M297.8,212.2"/>
	<path class="st1" d="M292.2,212.4"/>
	<path class="st1" d="M292.2,180.2"/>
	<path class="st0" d="M291.1,380.7"/>
	<path class="st0" d="M181.7,383"/>
	<path class="st0" d="M291.7,333.7"/>
	<path class="st1" d="M9.8,147.6"/>
	<path class="st0" d="M160.4,382.7"/>
	<path class="st0" d="M8.5,385.5"/>
	<path class="st0" d="M9.2,332.8"/>
	<path class="st0" d="M181.1,389.2"/>
	<path class="st0" d="M181.6,156.5"/>
	<g>
		<path class="st0" d="M160.3,389.6"/>
		<path class="st0" d="M161,154.1"/>
	</g>
	<path class="st1" d="M9.1,480.3"/>
	<path class="st0" d="M291.6,459.4"/>
	<path class="st1" d="M9.2,526.4"/>
	<g>
		<g>
			<polygon class="st1" points="478.6,565.1 478.4,103.9 451.5,111.5 464.8,114 464.8,119.9 294.5,170.2 12.8,136.3 12.3,129.9 
				19.4,124.1 8.9,124.1 8,542.4 291.3,511.4 294.5,509.2 297.1,512.3 			"/>
			<polygon class="st1" points="483.5,564.2 484.3,87.2 108,6.7 4.7,103.9 3.8,539.1 116.5,636.3 			"/>
			<polygon class="st2" points="12.3,129.9 115.7,47.8 464.8,114 464.8,119.9 115.9,57.4 13,136 			"/>
			<line class="st1" x1="379.9" y1="144.9" x2="66.2" y2="95.4"/>
			<line class="st1" x1="263.1" y1="83.7" x2="121.6" y2="149.4"/>
			<line class="st1" x1="373.9" y1="103.6" x2="217.5" y2="160.9"/>
			<polyline class="st0" points="103.7,125.2 103.1,125.2 102.2,125.4 101.6,125.4 100.7,125.4 99.9,125.4 99.2,125.4 98.4,125.4 
				97.5,125.4 96.7,125.4 96,125.4 95.2,125.4 94.5,125.4 93.9,125.4 93.2,125.4 92.6,125.4 92,125.2 91.5,125.2 91.1,125.2 
				90.9,125 90.5,125 90.3,125 90.2,124.8 90.2,124.6 90.5,124.6 90.9,124.4 91.1,124.4 91.5,124.2 92,124.2 92.6,124 93.2,124 
				93.9,124 94.5,124 95.2,123.7 96,123.7 96.9,123.7 97.5,123.7 98.4,123.7 99.2,123.5 100.1,123.5 100.9,123.5 101.6,123.7 
				102.4,123.7 103.1,123.7 103.7,123.7 104.4,123.7 105,123.7 105.4,123.9 105.9,123.9 106.3,123.9 106.5,124.1 106.7,124.1 
				106.9,124.1 106.9,124.3 106.9,124.5 106.7,124.5 106.5,124.8 106.3,124.8 105.9,124.8 105.4,125 104.8,125 104.4,125.2 
				103.7,125.2 			"/>
			<polyline class="st0" points="212.2,138.2 211.6,138.2 210.7,138.4 210.1,138.5 209.2,138.5 208.4,138.5 207.7,138.5 
				206.9,138.5 206,138.5 205.2,138.5 204.5,138.5 203.7,138.5 203,138.5 202.4,138.5 201.8,138.5 201.1,138.5 200.5,138.3 
				200,138.3 199.6,138.3 199.4,138.1 199,138.1 198.8,138.1 198.8,137.9 198.8,137.7 199,137.7 199.4,137.4 199.6,137.4 200,137.2 
				200.5,137.2 201.1,137 201.7,137 202.4,137 203,137 203.7,136.8 204.5,136.8 205.4,136.8 206,136.8 206.9,136.8 207.7,136.6 
				208.6,136.6 209.4,136.6 210.1,136.8 210.9,136.8 211.6,136.8 212.2,136.7 212.9,136.7 213.5,136.7 213.9,137 214.4,137 
				214.8,137 215,137.2 215.2,137.2 215.4,137.2 215.4,137.4 215.4,137.6 215.2,137.6 215,137.8 214.8,137.8 214.4,137.8 213.9,138 
				213.3,138 212.9,138.2 212.2,138.2 			"/>
			<polyline class="st0" points="164.3,87.9 163.7,87.9 163,87.9 162.2,88.1 161.5,88.1 160.7,88.1 159.8,88.2 159,88.2 158.3,88.2 
				157.5,88.2 156.6,88.2 156,88.2 155.1,88.2 154.5,88 153.8,88 153.2,88 152.7,88 152.3,87.8 151.9,87.8 151.7,87.6 151.5,87.6 
				151.2,87.6 			"/>
			<polyline class="st0" points="166.6,87.3 166.4,87.3 166.2,87.5 165.8,87.5 165.4,87.7 164.7,87.7 164.3,87.9 			"/>
			<polyline class="st0" points="165.4,88.8 164.5,88.8 163.9,89 163,89 162.2,89 161.5,89 160.4,89.2 159.6,89.2 158.7,89.2 
				157.9,89.2 157,89.2 156.2,89.2 155.3,89 154.5,89 153.8,89 153,89 152.3,88.8 151.9,88.8 151.3,88.8 150.8,88.6 150.4,88.6 
				150.2,88.4 150,88.4 149.8,88.2 149.8,88 150,88 150.2,87.8 150.4,87.8 150.8,87.6 151.2,87.6 151.7,87.3 152.3,87.3 153,87.1 
				153.8,87.1 154.4,87.1 155.3,86.9 156.2,86.9 157,86.9 157.9,86.9 158.7,86.9 159.8,86.9 160.7,86.9 161.5,86.9 162.4,86.9 
				163.2,86.9 164.1,86.9 164.7,87.1 165.4,87.1 166,87.1 166.6,87.3 167.1,87.3 167.5,87.3 167.7,87.5 168.1,87.5 168.1,87.7 
				168.4,87.7 168.4,87.9 168.1,88.1 167.9,88.1 167.7,88.3 167.5,88.3 167.1,88.5 166.4,88.5 166,88.6 165.4,88.8 			"/>
			<polyline class="st0" points="287.6,109.5 287,109.5 286.1,109.8 285.5,109.8 284.6,109.8 283.8,109.8 283.1,109.8 282.3,109.8 
				281.4,109.8 280.6,109.8 279.9,109.8 279.1,109.8 278.4,109.8 277.8,109.8 277.1,109.8 276.5,109.8 275.9,109.6 275.4,109.6 
				275,109.6 274.8,109.4 274.4,109.4 274.1,109.4 274.1,109.2 274.1,109 274.4,109 274.8,108.7 275,108.7 275.4,108.5 275.8,108.5 
				276.5,108.3 277.1,108.3 277.8,108.3 278.4,108.3 279.1,108.1 279.9,108.1 280.8,108.1 281.4,108.1 282.3,108.1 283.1,107.9 
				284,107.9 284.8,107.9 285.5,108.1 286.3,108.1 287,108.1 287.6,108.1 288.2,108.1 288.9,108 289.3,108.3 289.7,108.3 
				290.2,108.3 290.4,108.5 290.6,108.5 290.8,108.5 290.8,108.7 290.8,108.9 290.6,108.9 290.4,109.1 290.2,109.1 289.8,109.1 
				289.3,109.3 288.7,109.3 288.3,109.5 287.6,109.5 			"/>
			<polyline class="st0" points="298.3,151.1 297.9,151.1 297.2,151.1 296.8,151.1 296.2,151.1 295.5,151.1 294.9,151.3 
				294.2,151.3 293.6,151.3 293,151.3 292.3,151.3 291.7,151.3 291,151.3 290.4,151.1 289.8,151.1 289.3,151.1 288.7,151.1 
				288.3,151.1 287.8,151.1 287.4,150.9 287,150.9 286.8,150.9 286.5,150.9 286.3,150.7 286.3,150.5 286.5,150.5 286.8,150.5 
				287,150.3 287.4,150.3 287.8,150.3 288.3,150.3 288.7,150.1 289.3,150.1 289.8,150.1 290.4,150.1 291,150.1 291.7,150.1 
				292.3,150.1 293,150.1 293.6,150.1 294.2,150.1 294.9,150.1 295.5,150.1 296.2,150.1 296.8,150.1 297.5,150.1 297.9,150.1 
				298.3,150.3 298.7,150.3 299.2,150.3 299.4,150.3 299.6,150.5 299.8,150.5 300,150.5 300,150.7 299.8,150.7 299.6,150.9 
				299.4,150.9 299,150.9 298.7,150.9 298.3,151.1 			"/>
			<polyline class="st0" points="383.4,125.9 382.8,125.9 381.9,126.1 381.3,126.1 380.4,126.1 379.6,126.1 378.9,126.1 
				378.1,126.1 377.2,126.1 376.4,126.1 375.7,126.1 374.9,126.1 374.2,126.1 373.6,126.1 372.9,126.1 372.3,126.1 371.7,125.9 
				371.2,125.9 370.8,125.9 370.6,125.7 370.2,125.7 370,125.7 370,125.5 370,125.3 370.2,125.3 370.6,125.1 370.8,125.1 
				371.2,124.9 371.7,124.9 372.3,124.6 372.9,124.6 373.6,124.6 374.2,124.6 374.9,124.4 375.7,124.4 376.6,124.4 377.2,124.4 
				378.1,124.4 378.9,124.2 379.8,124.2 380.6,124.2 381.3,124.4 382.1,124.4 382.8,124.4 383.4,124.4 384.1,124.4 384.7,124.4 
				385.1,124.6 385.6,124.6 386,124.6 386.2,124.8 386.4,124.8 386.6,124.8 386.6,125 386.6,125.2 386.4,125.2 386.2,125.4 
				386,125.4 385.6,125.4 385.1,125.6 384.5,125.6 384.1,125.9 383.4,125.9 			"/>
			<line class="st1" x1="115.9" y1="57.4" x2="115.7" y2="47.8"/>
			<line class="st1" x1="478.4" y1="103.9" x2="484.1" y2="107"/>
			<line class="st1" x1="484.3" y1="87.2" x2="418" y2="105.2"/>
			<line class="st1" x1="4.7" y1="103.9" x2="37.8" y2="109.5"/>
			<line class="st1" x1="8.9" y1="124.1" x2="5" y2="126.1"/>
		</g>
		<line class="st0" x1="294.5" y1="509.2" x2="294.5" y2="170.2"/>
	</g>
	<path class="st0" d="M8.9,384.4"/>
	<path class="st0" d="M291.8,378.9"/>
	<path class="st0" d="M295,399"/>
	<path class="st0" d="M291.9,399.1"/>
	<path class="st0" d="M291.9,399.1"/>
	<path class="st0" d="M9.1,410.6"/>
	<path class="st0" d="M478.6,394.6"/>
	<path class="st0" d="M297.9,379.2"/>
	<path class="st0" d="M478.3,420.2"/>
	<path class="st0" d="M298.3,399.6"/>
	<line class="st0" x1="291.7" y1="510.9" x2="292" y2="169.9"/>
	<line class="st0" x1="297.2" y1="169.4" x2="296.8" y2="511.8"/>
	<line class="st1" x1="297.2" y1="494.3" x2="478.6" y2="537.6"/>
	<line class="st1" x1="8.1" y1="518.1" x2="291.7" y2="493.9"/>
	<path class="st0" d="M298.4,288.2"/>
	<path class="st0" d="M295.7,191"/>
	<path class="st0" d="M298.4,208.7"/>
</g>
<g id="height_lines" class="st3">
	<path class="st4" d="M137.4-287.1"/>
	<text transform="matrix(1 0 0 1 -224.0925 897.8833)" class="st5" style="font-family:'ArialMT'; font-size:24px;">D1</text>
	<text transform="matrix(1 0 0 1 -325.6491 341.0244)" class="st5" style="font-family:'ArialMT'; font-size:24px;">H1</text>
	<text transform="matrix(1 0 0 1 803.4144 334.0737)" class="st5" style="font-family:'ArialMT'; font-size:24px;">H2</text>
	<line class="st4" x1="-224.1" y1="792.4" x2="-330.6" y2="819.9"/>
	<line class="st4" x1="-13.6" y1="980" x2="-116.1" y2="1008.5"/>
	<path class="st4" d="M-312.5,309.6c-0.8-127.2,2.5-295.4,2.5-422.2"/>
	<path class="st4" d="M-308.1,812.4c0-207-5.2-248.9-4.4-455.6"/>
	<line class="st4" x1="-272.8" y1="-107" x2="-346.3" y2="-120.5"/>
	<line class="st4" x1="860.2" y1="-82.2" x2="777.1" y2="-76.3"/>
	<path class="st4" d="M810,890.5"/>
	<path class="st4" d="M815,851.9c2.9-203.3-3-291.5-0.7-490.9"/>
	<text transform="matrix(1 0 0 1 429.7045 956.1812)" class="st5" style="font-family:'ArialMT'; font-size:24px;">W1</text>
	<path class="st4" d="M-260.1-106.5"/>
	<path class="st4" d="M163.9-182.5"/>
	<line class="st4" x1="45" y1="998.9" x2="126.8" y2="1060.8"/>
	<line class="st4" x1="775.5" y1="842.1" x2="864" y2="864.6"/>
	<line class="st4" x1="815.9" y1="-79" x2="815.9" y2="291.5"/>
	<line class="st4" x1="-308.1" y1="812.4" x2="-235.1" y2="864.3"/>
	<line class="st4" x1="-186.1" y1="907.7" x2="-76.3" y2="997.5"/>
	<line class="st4" x1="815" y1="853.3" x2="471.7" y2="937.5"/>
	<line class="st4" x1="80.9" y1="1023.9" x2="417.7" y2="952.6"/>
</g>
<g id="letters" class="st3">
	<g class="st5">
		<rect x="-158.8" y="169.4" class="st6" width="50" height="50"/>
		<g>
			<rect x="-157.9" y="180.4" class="st7" width="48.2" height="31.2"/>
			<text transform="matrix(1 0 0 1 -143.2838 203.0581)" class="st8 st9 st10">A</text>
		</g>
	</g>
	<g class="st5">
		<rect x="228.2" y="194.1" class="st6" width="50" height="50"/>
		<g>
			<rect x="229.2" y="205.1" class="st7" width="48.2" height="31.2"/>
			<text transform="matrix(1 0 0 1 243.7933 227.7251)" class="st8 st9 st10">A</text>
		</g>
	</g>
	<g class="st5">
		<rect x="-0.2" y="178.4" class="st11" width="50" height="50"/>
		<g>
			<rect x="0.7" y="189.4" class="st7" width="48.2" height="31.2"/>
			<text transform="matrix(1 0 0 1 15.3827 212.0581)" class="st9 st10">B</text>
		</g>
	</g>
	<g class="st5">
		<rect x="442.9" y="315.5" class="st11" width="50" height="50"/>
		<g>
			<rect x="443.8" y="326.6" class="st7" width="48.2" height="31.2"/>
			<text transform="matrix(1 0 0 1 458.4686 349.1851)" class="st9 st10">B</text>
		</g>
	</g>
	<g class="st5">
		<rect x="358.3" y="323.1" class="st6" width="50" height="50"/>
		<g>
			<rect x="359.2" y="334.1" class="st7" width="48.2" height="31.2"/>
			<text transform="matrix(1 0 0 1 373.8148 356.7466)" class="st8 st9 st10">A</text>
		</g>
	</g>
	<g class="st5">
		<rect x="615.3" y="305.9" class="st6" width="50" height="50"/>
		<g>
			<rect x="616.2" y="316.9" class="st7" width="48.2" height="31.2"/>
			<text transform="matrix(1 0 0 1 630.8782 339.5249)" class="st8 st9 st10">A</text>
		</g>
	</g>
	<g class="st5">
		<rect x="100.4" y="183.1" class="st11" width="50" height="50"/>
		<g>
			<rect x="101.3" y="194.1" class="st7" width="48.2" height="31.2"/>
			<text transform="matrix(1 0 0 1 115.9548 216.7251)" class="st9 st10">C</text>
		</g>
	</g>
	<g class="st5">
		<rect x="521.1" y="307.7" class="st11" width="50" height="50"/>
		<g>
			<rect x="522" y="318.7" class="st7" width="48.2" height="31.2"/>
			<text transform="matrix(1 0 0 1 536.616 341.3296)" class="st9 st10">C</text>
		</g>
	</g>
	<g class="st5">
		<rect x="-161.7" y="594.8" class="st6" width="50" height="50"/>
		<g>
			<rect x="-160.8" y="605.8" class="st7" width="48.2" height="31.2"/>
			<text transform="matrix(1 0 0 1 -146.1574 628.4429)" class="st8 st9 st10">A</text>
		</g>
	</g>
	<g class="st5">
		<rect x="226.4" y="560.5" class="st6" width="50" height="50"/>
		<g>
			<rect x="227.3" y="571.5" class="st7" width="48.2" height="31.2"/>
			<text transform="matrix(1 0 0 1 241.9197 594.1099)" class="st8 st9 st10">A</text>
		</g>
	</g>
	<g class="st5">
		<rect x="-1" y="576.8" class="st11" width="50" height="50"/>
		<g>
			<rect x="-0.1" y="587.8" class="st7" width="48.2" height="31.2"/>
			<text transform="matrix(1 0 0 1 14.5091 610.4429)" class="st9 st10">B</text>
		</g>
	</g>
	<g class="st5">
		<rect x="99.5" y="569.5" class="st11" width="50" height="50"/>
		<g>
			<rect x="100.4" y="580.5" class="st7" width="48.2" height="31.2"/>
			<text transform="matrix(1 0 0 1 115.0814 603.1099)" class="st9 st10">C</text>
		</g>
	</g>
</g>
<g id="numbers" class="st3">
	<line class="st12" x1="320.4" y1="759.7" x2="418.9" y2="710.2"/>
	<line class="st12" x1="269.6" y1="755.6" x2="169.7" y2="710.1"/>
	<line class="st12" x1="389.8" y1="68.4" x2="346.7" y2="118.7"/>
	<line class="st12" x1="50.4" y1="37.7" x2="89.7" y2="70.9"/>
	<line class="st12" x1="-1" y1="39.9" x2="-45.8" y2="73.2"/>
	<ellipse class="st13" cx="23.4" cy="25.6" rx="28.4" ry="28.4"/>
	<text transform="matrix(1 0 0 1 16.4662 36.4868)" class="st5 st9 st14">4</text>
	<path class="st12" d="M-126.4-163.1c15.7,0,28.4-12.7,28.4-28.4s-12.7-28.4-28.4-28.4c-15.7,0-28.4,12.7-28.4,28.4
		S-142.1-163.1-126.4-163.1z"/>
	<text transform="matrix(1 0 0 1 -133.3312 -180.604)" class="st5 st9 st14">5</text>
	<path class="st12" d="M296.8,795.7c15.7,0,28.3-12.7,28.3-28.3c0-15.7-12.7-28.4-28.3-28.4c-15.7,0-28.4,12.7-28.4,28.4
		C268.5,783,281.2,795.7,296.8,795.7z"/>
	<text transform="matrix(1 0 0 1 289.8856 778.2007)" class="st5 st9 st14">2</text>
	
		<ellipse transform="matrix(0.9816 -0.1908 0.1908 0.9816 -0.9397 77.6784)" class="st13" cx="402.9" cy="43.7" rx="28.4" ry="28.4"/>
	<text transform="matrix(1 0 0 1 395.9509 54.6538)" class="st5 st9 st14">3</text>
	<circle class="st12" cx="412.3" cy="-160.9" r="28.4"/>
	<text transform="matrix(1 0 0 1 405.4031 -150.1216)" class="st5 st9 st14">6</text>
	<line class="st12" x1="391" y1="-141.4" x2="325.3" y2="-105"/>
	<path class="st12" d="M181.6,349.3c15.7,0,28.4-12.7,28.4-28.4s-12.7-28.4-28.4-28.4s-28.3,12.7-28.3,28.4
		C153.2,336.6,165.9,349.3,181.6,349.3z"/>
	<text transform="matrix(1 0 0 1 174.6257 331.7769)" class="st5 st9 st14">7</text>
	<line class="st12" x1="169.1" y1="347.4" x2="102.3" y2="461.3"/>
	<line class="st12" x1="-99.3" y1="-181.2" x2="-35.2" y2="-139.1"/>
	<path class="st12" d="M-187.5,351.7c15.7,0,28.4-12.7,28.4-28.4s-12.7-28.3-28.4-28.3c-15.7,0-28.4,12.7-28.4,28.3
		C-215.9,339-203.2,351.7-187.5,351.7z"/>
	<text transform="matrix(1 0 0 1 -194.4738 334.1401)" class="st5 st9 st14">1</text>
	<line class="st12" x1="-90.6" y1="451.3" x2="-174.2" y2="347.6"/>
</g>
</svg>
