<?xml version="1.0" encoding="utf-8"?>
<!-- Generator: Adobe Illustrator 26.0.3, SVG Export Plug-In . SVG Version: 6.00 Build 0)  -->
<svg version="1.1" id="Layer_1" xmlns="http://www.w3.org/2000/svg" xmlns:xlink="http://www.w3.org/1999/xlink" x="0px" y="0px"
	 viewBox="0 0 494 639.6" style="enable-background:new 0 0 494 639.6;" xml:space="preserve">
<style type="text/css">
	.st0{display:none;}
	.st1{display:inline;fill:none;stroke:#000000;}
	.st2{fill:none;stroke:#989898;stroke-width:10;stroke-linecap:round;stroke-linejoin:round;}
	.st3{fill:#FFFFFF;}
	.st4{fill:none;}
	.st5{fill:#ACAEB1;stroke:#989898;stroke-width:10;stroke-linecap:round;stroke-linejoin:round;}
	.st6{fill:#FFFFFF;stroke:#989898;stroke-width:10;stroke-linecap:round;stroke-linejoin:round;}
	.st7{fill:none;stroke:#989898;stroke-width:10;stroke-linecap:round;stroke-linejoin:round;stroke-miterlimit:10;}
	.st8{display:inline;}
	.st9{fill:none;stroke:#414042;stroke-width:2;}
	.st10{fill:#414042;}
	.st11{font-family:'Arial-BoldMT';}
	.st12{font-size:30px;}
	.st13{fill:none;stroke:#414042;stroke-width:1.9999;stroke-miterlimit:3.9998;}
	.st14{fill:none;stroke:#000000;stroke-width:2;}
	.st15{font-size:26.25px;}
</style>
<g id="helght_lines" class="st0">
	<text transform="matrix(1 0 0 1 -222.1486 904.4753)" class="st8" style="font-family:'ArialMT'; font-size:24px;">D1</text>
	<text transform="matrix(1 0 0 1 -323.7051 347.6164)" class="st8" style="font-family:'ArialMT'; font-size:24px;">H1</text>
	<text transform="matrix(1 0 0 1 805.3583 340.6667)" class="st8" style="font-family:'ArialMT'; font-size:24px;">H2</text>
	<line class="st1" x1="-222.1" y1="798.9" x2="-328.6" y2="826.4"/>
	<line class="st1" x1="-11.6" y1="986.5" x2="-114.1" y2="1015"/>
	<path class="st1" d="M-310.5,316.1c-0.8-127.2,2.5-274.4,2.5-401.2"/>
	<path class="st1" d="M-306.1,818.9c0-207-5.2-248.9-4.4-455.6"/>
	<line class="st1" x1="-270.8" y1="-79.5" x2="-344.3" y2="-93"/>
	<line class="st1" x1="862.2" y1="-54.7" x2="779.1" y2="-48.8"/>
	<path class="st1" d="M812,897"/>
	<path class="st1" d="M817,858.4c2.9-203.3-3-291.5-0.7-490.9"/>
	<text transform="matrix(1 0 0 1 431.6484 962.7742)" class="st8" style="font-family:'ArialMT'; font-size:24px;">W1</text>
	<path class="st1" d="M-258.1-79"/>
	<path class="st1" d="M165.9-155"/>
	<line class="st1" x1="46.9" y1="1005.4" x2="128.8" y2="1067.3"/>
	<line class="st1" x1="777.5" y1="848.6" x2="866" y2="871.1"/>
	<line class="st1" x1="817.9" y1="-51.5" x2="817.9" y2="298"/>
	<line class="st1" x1="-306.1" y1="818.9" x2="-233.1" y2="870.8"/>
	<line class="st1" x1="-184.1" y1="914.2" x2="-74.3" y2="1004"/>
	<line class="st1" x1="817" y1="859.8" x2="473.7" y2="944"/>
	<line class="st1" x1="82.9" y1="1030.4" x2="419.7" y2="959.1"/>
</g>
<g id="outline">
	<path class="st2" d="M12.3,522.6"/>
	<g>
		<path class="st3" d="M172.8,392.4"/>
		<polyline class="st3" points="291.9,385.7 291.8,385.3 291.6,384.9 291.4,384.6 291.2,384.3 291,384.1 290.7,383.9 290.5,383.7 
			290.2,383.7 290,383.6 289.6,383.6 		"/>
		<polyline class="st3" points="290,388.9 290.2,388.9 290.6,388.8 290.8,388.7 291.1,388.6 291.3,388.4 291.5,388 291.7,387.7 
			291.8,387.3 291.9,387.1 291.9,386.8 291.9,386.4 291.9,386 291.9,385.7 		"/>
		<polyline class="st3" points="22,392.8 21.9,392.1 21.7,391.7 21.5,391.4 21.4,391 21.2,390.7 21,390.4 20.7,390.2 20.4,390.1 
			20.1,390 19.8,390 19.4,390 19.2,390.1 18.9,390.3 18.7,390.5 18.6,390.8 18.3,391.3 18.2,391.7 18.2,392 18.1,392.3 18.1,392.9 
			18.1,393.3 18.1,393.8 18.2,394.2 18.3,394.7 18.4,395.1 18.6,395.6 18.8,395.9 19.1,396.3 19.3,396.5 19.6,396.7 19.8,396.9 
			20.1,397 20.4,397 20.6,396.9 20.9,396.8 21.2,396.7 21.3,396.4 21.5,396.2 21.8,395.8 21.9,395.4 22,395 22.1,394.6 22.1,394.1 
			22.1,393.7 22,393.1 22,392.8 		"/>
		<line class="st4" x1="32.6" y1="396.5" x2="20.4" y2="397"/>
		<line class="st4" x1="171.8" y1="392.5" x2="32.1" y2="396.5"/>
		<line class="st4" x1="282.5" y1="389.2" x2="171.5" y2="392.5"/>
		<line class="st4" x1="290" y1="388.9" x2="282.4" y2="389.2"/>
		<line class="st4" x1="19.8" y1="390" x2="289.6" y2="383.6"/>
	</g>
	<g>
		<g>
			<path class="st5" d="M442.8,495.5"/>
			<polygon class="st2" points="481.7,561.2 481.5,105.1 454.6,112.7 467.9,115.2 467.9,121 297.6,171.4 15.9,137.4 15.4,131.1 
				22.5,125.3 12,125.2 11.2,538.6 294.4,507.6 297.6,505.4 300.2,508.4 			"/>
			<polygon class="st2" points="486.6,560.4 487.4,88.4 111.2,7.9 7.8,105.1 6.9,535.3 119.6,632.5 			"/>
			<polygon class="st6" points="15.4,131.1 118.8,49 467.9,115.2 467.9,121 119,58.6 16.1,137.1 			"/>
			<line class="st2" x1="383" y1="146.1" x2="69.3" y2="96.5"/>
			<line class="st2" x1="266.2" y1="84.9" x2="124.7" y2="150.6"/>
			<line class="st2" x1="377" y1="104.8" x2="220.6" y2="162.1"/>
			<polyline class="st7" points="106.8,126.4 106.2,126.4 105.3,126.6 104.7,126.6 103.8,126.6 103,126.6 102.4,126.6 101.5,126.6 
				100.6,126.6 99.8,126.6 99.1,126.6 98.3,126.6 97.6,126.6 97,126.6 96.4,126.6 95.7,126.6 95.1,126.4 94.7,126.4 94.2,126.4 
				94,126.2 93.6,126.2 93.4,126.2 93.4,126 93.4,125.8 93.6,125.8 94,125.6 94.2,125.6 94.6,125.4 95.1,125.4 95.7,125.1 
				96.4,125.1 97,125.1 97.6,125.1 98.3,124.9 99.1,124.9 100,124.9 100.6,124.9 101.5,124.9 102.3,124.7 103.2,124.7 104.1,124.7 
				104.7,124.9 105.6,124.9 106.2,124.9 106.8,124.9 107.5,124.9 108.1,124.9 108.5,125.1 109,125.1 109.4,125.1 109.6,125.3 
				109.8,125.3 110,125.3 110,125.5 110,125.7 109.8,125.7 109.6,125.9 109.4,125.9 109,125.9 108.5,126.1 107.9,126.1 107.5,126.4 
				106.8,126.4 			"/>
			<polyline class="st7" points="215.3,139.4 214.7,139.4 213.9,139.6 213.2,139.6 212.4,139.6 211.5,139.6 210.9,139.6 210,139.6 
				209.1,139.6 208.3,139.6 207.7,139.6 206.8,139.7 206.2,139.7 205.5,139.7 204.9,139.7 204.2,139.7 203.6,139.5 203.2,139.5 
				202.7,139.5 202.5,139.2 202.1,139.2 201.9,139.2 201.9,139 201.9,138.8 202.1,138.8 202.5,138.6 202.7,138.6 203.2,138.4 
				203.6,138.4 204.2,138.2 204.9,138.2 205.5,138.2 206.1,138.2 206.8,138 207.6,138 208.5,138 209.1,137.9 210,137.9 210.9,137.7 
				211.7,137.7 212.6,137.7 213.2,137.9 214.1,137.9 214.7,137.9 215.3,137.9 216,137.9 216.6,137.9 217.1,138.1 217.5,138.1 
				217.9,138.1 218.1,138.3 218.3,138.3 218.6,138.3 218.6,138.5 218.6,138.8 218.3,138.8 218.1,139 217.9,139 217.5,139 
				217.1,139.2 216.4,139.2 216,139.4 215.3,139.4 			"/>
			<polyline class="st7" points="167.4,89.1 166.8,89.1 166.1,89.1 165.3,89.3 164.6,89.3 163.8,89.3 162.9,89.3 162.1,89.3 
				161.4,89.3 160.6,89.3 159.7,89.3 159.1,89.3 158.2,89.3 157.6,89.1 156.9,89.1 156.3,89.1 155.9,89.1 155.4,88.9 155,88.9 
				154.8,88.7 154.6,88.7 154.4,88.7 			"/>
			<polyline class="st7" points="169.8,88.5 169.5,88.5 169.3,88.7 168.9,88.7 168.5,88.9 167.8,88.9 167.4,89.1 			"/>
			<polyline class="st7" points="168.5,89.9 167.6,89.9 167,90.2 166.1,90.2 165.3,90.2 164.6,90.2 163.6,90.4 162.7,90.4 
				161.9,90.4 161,90.4 160.1,90.4 159.3,90.4 158.4,90.2 157.6,90.2 156.9,90.2 156.1,90.2 155.4,90 155,90 154.4,90 153.9,89.8 
				153.5,89.8 153.3,89.6 153.1,89.6 152.9,89.4 152.9,89.2 153.1,89.2 153.3,88.9 153.5,88.9 153.9,88.7 154.4,88.7 154.8,88.5 
				155.4,88.5 156.1,88.3 156.9,88.3 157.6,88.3 158.4,88.1 159.3,88.1 160.1,88.1 161,88.1 161.8,88.1 162.9,88.1 163.8,88.1 
				164.6,88.1 165.5,88 166.3,88 167.2,88 167.8,88.2 168.5,88.2 169.1,88.2 169.8,88.5 170.2,88.4 170.6,88.4 170.8,88.7 
				171.3,88.7 171.3,88.9 171.5,88.9 171.5,89.1 171.3,89.3 171.1,89.3 170.8,89.5 170.6,89.5 170.2,89.7 169.6,89.7 169.1,89.7 
				168.5,89.9 			"/>
			<polyline class="st7" points="290.7,110.7 290.1,110.7 289.2,110.9 288.6,110.9 287.7,110.9 286.9,110.9 286.2,110.9 
				285.4,110.9 284.5,110.9 283.7,110.9 283,111 282.2,111 281.5,111 280.9,111 280.3,111 279.6,111 279,110.8 278.5,110.8 
				278.1,110.8 277.9,110.6 277.5,110.6 277.3,110.6 277.3,110.3 277.3,110.1 277.5,110.1 277.9,109.9 278.1,109.9 278.5,109.7 
				279,109.7 279.6,109.5 280.2,109.5 280.9,109.5 281.5,109.5 282.2,109.3 283,109.3 283.9,109.3 284.5,109.3 285.4,109.2 
				286.2,109 287.1,109 287.9,109 288.6,109.2 289.4,109.2 290.1,109.2 290.7,109.2 291.4,109.2 292,109.2 292.4,109.4 292.9,109.4 
				293.3,109.4 293.5,109.6 293.7,109.6 293.9,109.6 293.9,109.8 293.9,110.1 293.7,110.1 293.5,110.3 293.3,110.3 292.9,110.3 
				292.4,110.5 291.8,110.5 291.4,110.7 290.7,110.7 			"/>
			<polyline class="st7" points="301.4,152.3 301,152.3 300.4,152.3 299.9,152.3 299.3,152.3 298.6,152.3 298,152.5 297.4,152.5 
				296.7,152.5 296.1,152.5 295.4,152.5 294.8,152.5 294.2,152.5 293.5,152.3 292.9,152.3 292.4,152.3 291.8,152.3 291.4,152.3 
				291,152.3 290.5,152.1 290.1,152.1 289.9,152.1 289.7,152.1 289.5,151.9 289.5,151.7 289.7,151.7 289.9,151.7 290.1,151.5 
				290.5,151.5 290.9,151.5 291.4,151.5 291.8,151.3 292.4,151.3 292.9,151.3 293.5,151.3 294.2,151.3 294.8,151.2 295.4,151.2 
				296.1,151.2 296.7,151.2 297.4,151.2 298,151.2 298.6,151.2 299.3,151.2 299.9,151.2 300.6,151.2 301,151.2 301.4,151.4 
				301.9,151.4 302.3,151.4 302.5,151.4 302.7,151.6 302.9,151.6 303.1,151.6 303.1,151.8 302.9,151.8 302.7,152.1 302.5,152.1 
				302.1,152.1 301.9,152.1 301.4,152.3 			"/>
			<polyline class="st7" points="386.5,127 385.9,127 385.1,127.3 384.4,127.3 383.6,127.3 382.7,127.3 382.1,127.3 381.2,127.3 
				380.3,127.3 379.5,127.3 378.9,127.3 378,127.3 377.4,127.3 376.7,127.3 376.1,127.3 375.4,127.3 374.8,127.1 374.4,127.1 
				373.9,127.1 373.7,126.9 373.3,126.9 373.1,126.9 373.1,126.7 373.1,126.5 373.3,126.5 373.7,126.2 373.9,126.2 374.4,126 
				374.8,126 375.4,125.8 376.1,125.8 376.7,125.8 377.3,125.8 378,125.6 378.8,125.6 379.7,125.6 380.3,125.6 381.2,125.6 
				382,125.4 382.9,125.4 383.8,125.4 384.4,125.6 385.3,125.6 385.9,125.6 386.5,125.6 387.2,125.5 387.8,125.5 388.2,125.8 
				388.7,125.8 389.1,125.8 389.3,126 389.5,126 389.7,126 389.8,126.2 389.8,126.4 389.5,126.4 389.3,126.6 389.1,126.6 
				388.7,126.6 388.3,126.8 387.6,126.8 387.2,127 386.5,127 			"/>
			<line class="st2" x1="119" y1="58.6" x2="118.8" y2="49"/>
			<line class="st2" x1="481.5" y1="105.1" x2="487.2" y2="108.1"/>
			<line class="st2" x1="487.4" y1="88.4" x2="421.1" y2="106.4"/>
			<line class="st2" x1="7.8" y1="105.1" x2="40.9" y2="110.7"/>
			<line class="st2" x1="12" y1="125.2" x2="7.7" y2="127.9"/>
		</g>
		<line class="st7" x1="297.6" y1="505.4" x2="297.6" y2="171.4"/>
	</g>
	<line class="st7" x1="294.9" y1="377" x2="12" y2="382.5"/>
	<path class="st7" d="M298.1,395.1"/>
	<path class="st7" d="M295,395.2"/>
	<line class="st7" x1="11.7" y1="405.4" x2="294.5" y2="393.9"/>
	<line class="st7" x1="301" y1="377.4" x2="481.4" y2="392.7"/>
	<line class="st7" x1="300.9" y1="394.2" x2="481.4" y2="414.9"/>
	<line class="st7" x1="220.6" y1="162.5" x2="220.6" y2="378.1"/>
	<line class="st7" x1="220.8" y1="396.9" x2="220.6" y2="497.3"/>
	<line class="st7" x1="382.8" y1="403.6" x2="382.8" y2="511.7"/>
	<line class="st7" x1="382.8" y1="146.6" x2="382.8" y2="384.1"/>
	<line class="st7" x1="294.8" y1="507.6" x2="295.1" y2="171.1"/>
	<line class="st7" x1="300.8" y1="170.6" x2="300.4" y2="508.4"/>
	<line class="st2" x1="300.4" y1="492" x2="481.7" y2="535.3"/>
	<g>
		<path class="st3" d="M479,404.5c0.4-4.3-1.3-3.8-1.3-3.8l-172.5-16.4c0,0-1.2,0.5-1.5,2c-0.4,1.5,0.7,3.2,0.7,3.2L477,407.8
			C477,407.7,478.6,408.7,479,404.5z"/>
		<g>
			<line class="st4" x1="379.8" y1="397.3" x2="379.8" y2="397.3"/>
			<polyline class="st3" points="303.7,386.2 303.8,385.8 303.9,385.5 304.1,385.2 304.2,384.9 304.4,384.7 304.6,384.6 
				304.7,384.4 304.9,384.3 305,384.2 305.3,384.2 			"/>
			<polyline class="st3" points="304.8,389.5 304.7,389.5 304.4,389.4 304.2,389.3 304.1,389.1 303.9,389 303.8,388.7 303.7,388.3 
				303.7,387.9 303.7,387.6 303.7,387.3 303.7,386.9 303.7,386.5 303.7,386.2 			"/>
			<polyline class="st3" points="476.5,403.3 476.6,402.8 476.7,402.3 476.9,401.9 477,401.6 477.1,401.3 477.3,401.1 477.5,400.8 
				477.7,400.7 477.9,400.6 478.1,400.6 478.3,400.6 478.5,400.8 478.6,400.9 478.7,401.2 478.9,401.5 478.9,401.8 479.1,402.2 
				479.1,402.6 479.1,403 479.1,403.4 479.1,403.9 479,404.5 479,404.8 478.9,405.3 478.8,405.7 478.7,406.2 478.6,406.6 
				478.4,406.9 478.2,407.1 478,407.3 477.8,407.5 477.7,407.5 477.4,407.5 477.3,407.5 477.1,407.4 476.9,407.2 476.9,407 
				476.7,406.6 476.6,406.3 476.5,405.9 476.5,405.5 476.4,405.1 476.4,404.6 476.4,404.3 476.5,403.7 476.5,403.3 			"/>
			<line class="st4" x1="469.6" y1="406.6" x2="477.4" y2="407.5"/>
			<line class="st4" x1="379.7" y1="397.3" x2="470.2" y2="406.7"/>
			<line class="st4" x1="309.6" y1="390.1" x2="379.8" y2="397.3"/>
			<line class="st4" x1="304.8" y1="389.5" x2="309.7" y2="390.1"/>
			<line class="st4" x1="478.1" y1="400.6" x2="305.3" y2="384.2"/>
		</g>
	</g>
	<line class="st7" x1="124.7" y1="150.7" x2="124.7" y2="379.9"/>
	<line class="st7" x1="124.7" y1="401.2" x2="124.7" y2="505.6"/>
	<path class="st2" d="M294.3,508.9"/>
	<path class="st2" d="M11,539.9"/>
	<line class="st2" x1="11.1" y1="515.6" x2="294.7" y2="491.3"/>
	<path class="st2" d="M597.2,535.6"/>
	<path class="st2" d="M595.9,552.9"/>
</g>
<g id="numbers" class="st0">
	<g class="st8">
		<line class="st9" x1="375.2" y1="744.7" x2="471.2" y2="717.7"/>
		<line class="st9" x1="322.6" y1="741.8" x2="223.6" y2="694.4"/>
		<line class="st9" x1="390.5" y1="147.4" x2="354.3" y2="191"/>
		<line class="st9" x1="121.2" y1="110" x2="194.2" y2="158.2"/>
		<line class="st9" x1="70.9" y1="112.6" x2="2.5" y2="153.7"/>
		<path class="st9" d="M95.5,125.6c14.9,0,26.9-12.1,26.9-26.9c0-14.9-12.1-26.9-26.9-26.9c-14.9,0-26.9,12.1-26.9,26.9
			S80.6,125.6,95.5,125.6z"/>
		<text transform="matrix(1 0 0 1 88.8916 108.99)" class="st10 st11 st12">4</text>
		<path class="st9" d="M-102.1-166c14.9,0,26.9-12.1,26.9-26.9c0-14.9-12.1-26.9-26.9-26.9c-14.9,0-26.9,12.1-26.9,26.9
			C-129-178-117-166-102.1-166z"/>
		<text transform="matrix(1 0 0 1 -109.7334 -182.531)" class="st10 st11 st12">5</text>
		<ellipse class="st13" cx="348.5" cy="753" rx="26.9" ry="26.9"/>
		<text transform="matrix(1 0 0 1 341.8221 763.3816)" class="st10 st11 st12">2</text>
		<path class="st9" d="M402.9,150.9c14.9,0,26.9-12.1,26.9-26.9c0-14.9-12.1-26.9-26.9-26.9C388,97.1,376,109.2,376,124
			C376,138.9,388.1,150.9,402.9,150.9z"/>
		<text transform="matrix(1 0 0 1 396.3203 134.3791)" class="st10 st11 st12">3</text>
		<path class="st9" d="M411.2-144.7c14.9,0,26.9-12.1,26.9-26.9c0-14.9-12.1-26.9-26.9-26.9s-26.9,12.1-26.9,26.9
			C384.3-156.7,396.3-144.7,411.2-144.7z"/>
		<text transform="matrix(1 0 0 1 404.5615 -161.2234)" class="st10 st11 st12">6</text>
		<line class="st9" x1="390.9" y1="-153.1" x2="329.5" y2="-97.9"/>
		<path class="st9" d="M239,362.5c14.9,0,26.9-12.1,26.9-26.9c0-14.9-12.1-26.9-26.9-26.9c-14.9,0-26.9,12.1-26.9,26.9
			C212,350.4,224.1,362.5,239,362.5z"/>
		<text transform="matrix(1 0 0 1 232.3232 345.9299)" class="st10 st11 st12">7</text>
		<line class="st9" x1="227.1" y1="360.7" x2="167.2" y2="458.7"/>
		<line class="st9" x1="-76.4" y1="-183.2" x2="0.6" y2="-140"/>
		<circle class="st9" cx="-126.7" cy="327.9" r="26.9"/>
		<text transform="matrix(1 0 0 1 -133.3194 338.2751)" class="st10 st11 st12">1</text>
		<line class="st9" x1="-41.8" y1="442.7" x2="-114" y2="351"/>
	</g>
</g>
<g id="letters" class="st0">
	<g class="st8">
		<rect x="-132.3" y="219.1" class="st14" width="50" height="50"/>
		<g>
			<rect x="-131.3" y="230.2" class="st4" width="48.2" height="31.2"/>
			<text transform="matrix(1 0 0 1 -116.7569 252.8904)" class="st11 st15">A</text>
		</g>
	</g>
	<g class="st8">
		<rect x="76" y="218.3" class="st14" width="50" height="50"/>
		<g>
			<rect x="76.9" y="229.4" class="st4" width="48.2" height="31.2"/>
			<text transform="matrix(1 0 0 1 91.4697 252.0935)" class="st11 st15">B</text>
		</g>
	</g>
	<g class="st8">
		<rect x="-133.5" y="582.3" class="st14" width="50" height="50"/>
		<g>
			<rect x="-132.6" y="593.3" class="st4" width="48.2" height="31.2"/>
			<text transform="matrix(1 0 0 1 -118.0338 616.0164)" class="st11 st15">C</text>
		</g>
	</g>
	<g class="st8">
		<rect x="244" y="226.2" class="st14" width="50" height="50"/>
		<g>
			<rect x="244.9" y="237.2" class="st4" width="48.2" height="31.2"/>
			<text transform="matrix(1 0 0 1 259.493 259.9489)" class="st11 st15">A</text>
		</g>
	</g>
	<g class="st8">
		<rect x="408.7" y="197.2" class="st14" width="50" height="50"/>
		<g>
			<rect x="409.6" y="208.2" class="st4" width="48.2" height="31.2"/>
			<text transform="matrix(1 0 0 1 424.2186 230.9323)" class="st11 st15">B</text>
		</g>
	</g>
	<g class="st8">
		<rect x="588" y="156.2" class="st14" width="50" height="50"/>
		<g>
			<rect x="588.9" y="167.3" class="st4" width="48.2" height="31.2"/>
			<text transform="matrix(1 0 0 1 603.4872 189.9919)" class="st11 st15">A</text>
		</g>
	</g>
	<g class="st8">
		<rect x="245.5" y="552.4" class="st14" width="50" height="50"/>
		<g>
			<rect x="246.4" y="563.4" class="st4" width="48.2" height="31.2"/>
			<text transform="matrix(1 0 0 1 260.9824 586.1218)" class="st11 st15">C</text>
		</g>
	</g>
	<g class="st8">
		<rect x="586.6" y="596.5" class="st14" width="50" height="50"/>
		<g>
			<rect x="587.5" y="607.6" class="st4" width="48.2" height="31.2"/>
			<text transform="matrix(1 0 0 1 602.0762 630.2869)" class="st11 st15">C</text>
		</g>
	</g>
	<g class="st8">
		<rect x="75.6" y="566.4" class="st14" width="50" height="50"/>
		<g>
			<rect x="76.5" y="577.4" class="st4" width="48.2" height="31.2"/>
			<text transform="matrix(1 0 0 1 91.0951 600.1218)" class="st11 st15">D</text>
		</g>
	</g>
	<g class="st8">
		<rect x="404.8" y="565.3" class="st14" width="50" height="50"/>
		<g>
			<rect x="405.8" y="576.3" class="st4" width="48.2" height="31.2"/>
			<text transform="matrix(1 0 0 1 420.3431 599.0164)" class="st11 st15">D</text>
		</g>
	</g>
</g>
</svg>
