<?xml version="1.0" encoding="utf-8"?>
<!-- Generator: Adobe Illustrator 26.0.3, SVG Export Plug-In . SVG Version: 6.00 Build 0)  -->
<svg version="1.1" id="Layer_1" xmlns="http://www.w3.org/2000/svg" xmlns:xlink="http://www.w3.org/1999/xlink" x="0px" y="0px"
	 viewBox="0 0 489.8 646.3" style="enable-background:new 0 0 489.8 646.3;" xml:space="preserve">
<style type="text/css">
	.st0{fill:#FFFFFF;stroke:#989898;stroke-linecap:round;stroke-linejoin:round;stroke-miterlimit:10;}
	.st1{fill:none;stroke:#989898;stroke-width:10;stroke-linecap:round;stroke-linejoin:round;stroke-miterlimit:10;}
	.st2{fill:none;stroke:#989898;stroke-width:10;stroke-linecap:round;stroke-linejoin:round;}
	.st3{fill:#ACAEB1;stroke:#989898;stroke-width:10;stroke-linecap:round;stroke-linejoin:round;}
	.st4{fill:#FFFFFF;stroke:#989898;stroke-width:10;stroke-linecap:round;stroke-linejoin:round;}
	.st5{fill:#FFFFFF;}
	.st6{fill:none;}
	.st7{display:none;}
	.st8{display:inline;fill:none;stroke:#000000;}
	.st9{display:inline;}
	.st10{fill:none;stroke:#000000;stroke-width:2;}
	.st11{font-family:'Arial-BoldMT';}
	.st12{font-size:30px;}
	.st13{fill:none;stroke:#000000;stroke-width:2.0001;stroke-miterlimit:4.0001;}
	.st14{fill:none;stroke:#414042;stroke-width:2;}
	.st15{fill:none;stroke:#000000;stroke-width:2;stroke-miterlimit:4;}
	.st16{fill:none;stroke:#E6E7E8;stroke-width:2;}
	.st17{fill:#E6E7E8;}
	.st18{font-size:26.25px;}
</style>
<g id="color">
	<polyline class="st0" points="18.2,405.7 19.1,405.3 19.3,404.7 19.5,403.9 19.4,402.6 19.5,401.2 19,400.2 18.5,399.2 17.2,398.4 
		16.4,399.1 16.1,400 15.9,400.7 15.7,402 15.9,403.6 16.4,404.6 16.8,404.7 16.8,404.7 17.3,405.4 17.7,405.5 	"/>
</g>
<g id="outline">
	<path class="st1" d="M-15.8,136.9"/>
	<line class="st1" x1="216.2" y1="399.5" x2="216.2" y2="506.4"/>
	<line class="st1" x1="216.2" y1="158.3" x2="216.2" y2="393.7"/>
	<line class="st1" x1="478.7" y1="328.3" x2="298.4" y2="330.6"/>
	<line class="st1" x1="291.6" y1="330.6" x2="9.2" y2="328.3"/>
	<line class="st1" x1="479.2" y1="211.1" x2="298.4" y2="243.4"/>
	<line class="st1" x1="291.8" y1="243" x2="9.8" y2="227.9"/>
	<line class="st1" x1="479.2" y1="266.9" x2="298.6" y2="284.5"/>
	<line class="st1" x1="291.8" y1="285.4" x2="9.7" y2="279.2"/>
	<line class="st1" x1="479.2" y1="438.2" x2="298.2" y2="417.6"/>
	<line class="st1" x1="291.7" y1="417.6" x2="9.4" y2="430.2"/>
	<line class="st1" x1="479.2" y1="382.1" x2="298.2" y2="374.1"/>
	<line class="st1" x1="292" y1="374.3" x2="9.1" y2="376.9"/>
	<line class="st1" x1="479.3" y1="494.8" x2="298.1" y2="462.3"/>
	<line class="st1" x1="291.7" y1="462.3" x2="9.1" y2="482.6"/>
	<path class="st2" d="M10,531.1"/>
	<g>
		<g>
			<path class="st3" d="M440.4,504"/>
			<polygon class="st2" points="479.3,569.7 479.1,101.6 452.2,109.1 465.5,111.6 465.5,117.5 295.2,167.8 13.6,133.9 13,127.5 
				20.1,121.7 9.6,121.7 8.8,547 292.1,516 295.2,513.8 297.8,516.9 			"/>
			<polygon class="st2" points="484.2,568.8 485,84.8 108.8,4.3 5.4,101.6 4.5,543.7 117.2,640.9 			"/>
			<polygon class="st4" points="13,127.5 116.4,45.4 465.5,111.6 465.5,117.5 116.6,55 13.7,133.6 			"/>
			<line class="st2" x1="380.6" y1="142.5" x2="66.9" y2="93"/>
			<line class="st2" x1="263.8" y1="81.3" x2="122.3" y2="147"/>
			<line class="st2" x1="374.7" y1="101.2" x2="218.2" y2="158.5"/>
			<polyline class="st1" points="104.4,122.8 103.8,122.8 103,123 102.3,123 101.5,123 100.6,123 100,123 99.1,123 98.2,123 
				97.4,123 96.8,123 95.9,123 95.3,123 94.6,123.1 94,123.1 93.3,123.1 92.7,122.8 92.3,122.8 91.8,122.9 91.6,122.6 91.2,122.6 
				91,122.6 91,122.4 91,122.2 91.2,122.2 91.6,122 91.8,122 92.3,121.8 92.7,121.8 93.3,121.6 94,121.6 94.6,121.6 95.2,121.6 
				95.9,121.4 96.7,121.4 97.6,121.3 98.2,121.3 99.1,121.3 99.9,121.1 100.8,121.1 101.7,121.1 102.3,121.3 103.2,121.3 
				103.8,121.3 104.4,121.3 105.1,121.3 105.7,121.3 106.2,121.5 106.6,121.5 107,121.5 107.2,121.7 107.4,121.7 107.7,121.7 
				107.7,121.9 107.7,122.2 107.4,122.2 107.2,122.4 107,122.4 106.6,122.4 106.2,122.6 105.5,122.6 105.1,122.8 104.4,122.8 			"/>
			<polyline class="st1" points="213,135.8 212.3,135.8 211.5,136.1 210.8,136.1 210,136.1 209.1,136.1 208.5,136.1 207.6,136.1 
				206.8,136.1 205.9,136.1 205.3,136.1 204.4,136.1 203.8,136.1 203.1,136.1 202.5,136.1 201.8,136.1 201.2,135.9 200.8,135.9 
				200.3,135.9 200.1,135.7 199.7,135.7 199.5,135.7 199.5,135.5 199.5,135.3 199.7,135.3 200.1,135 200.3,135 200.8,134.8 
				201.2,134.8 201.8,134.6 202.5,134.6 203.1,134.6 203.8,134.6 204.4,134.4 205.3,134.4 206.1,134.4 206.7,134.4 207.6,134.4 
				208.5,134.2 209.3,134.2 210.2,134.2 210.8,134.4 211.7,134.4 212.3,134.4 213,134.4 213.6,134.4 214.2,134.4 214.7,134.6 
				215.1,134.6 215.5,134.6 215.7,134.8 215.9,134.8 216.2,134.8 216.2,135 216.2,135.2 215.9,135.2 215.7,135.4 215.5,135.4 
				215.1,135.4 214.7,135.6 214,135.6 213.6,135.8 213,135.8 			"/>
			<polyline class="st1" points="165,85.5 164.4,85.5 163.7,85.5 162.9,85.8 162.2,85.8 161.4,85.8 160.5,85.8 159.7,85.8 159,85.8 
				158.2,85.8 157.3,85.8 156.7,85.8 155.8,85.8 155.2,85.6 154.5,85.6 153.9,85.6 153.5,85.6 153,85.4 152.6,85.4 152.4,85.2 
				152.2,85.2 152,85.2 			"/>
			<polyline class="st1" points="167.4,84.9 167.2,84.9 166.9,85.1 166.5,85.1 166.1,85.3 165.4,85.3 165,85.5 			"/>
			<polyline class="st1" points="166.1,86.4 165.2,86.4 164.6,86.6 163.7,86.6 162.9,86.6 162.3,86.6 161.2,86.8 160.3,86.8 
				159.5,86.8 158.6,86.8 157.8,86.8 156.9,86.8 156,86.6 155.2,86.6 154.5,86.6 153.7,86.6 153,86.4 152.6,86.4 152,86.4 
				151.6,86.2 151.1,86.2 150.9,86 150.7,86 150.5,85.8 150.5,85.6 150.7,85.6 150.9,85.4 151.1,85.4 151.5,85.2 152,85.2 152.4,85 
				153,84.9 153.7,84.7 154.5,84.7 155.2,84.7 156,84.5 156.9,84.5 157.7,84.5 158.6,84.5 159.5,84.5 160.5,84.5 161.4,84.5 
				162.2,84.5 163.1,84.5 163.9,84.5 164.8,84.5 165.4,84.7 166.1,84.7 166.7,84.7 167.4,84.9 167.8,84.9 168.2,84.9 168.4,85.1 
				168.9,85.1 168.9,85.3 169.1,85.3 169.1,85.5 168.9,85.7 168.7,85.7 168.4,85.9 168.2,85.9 167.8,86.2 167.2,86.2 166.7,86.2 
				166.1,86.4 			"/>
			<polyline class="st1" points="288.3,107.1 287.7,107.1 286.8,107.4 286.2,107.4 285.3,107.4 284.5,107.4 283.8,107.4 283,107.4 
				282.1,107.4 281.3,107.4 280.6,107.4 279.8,107.4 279.1,107.4 278.5,107.4 277.9,107.4 277.2,107.4 276.6,107.2 276.2,107.2 
				275.7,107.2 275.5,107 275.1,107 274.9,107 274.9,106.8 274.9,106.6 275.1,106.6 275.5,106.4 275.7,106.4 276.1,106.1 
				276.6,106.1 277.2,105.9 277.9,105.9 278.5,105.9 279.1,105.9 279.8,105.7 280.6,105.7 281.5,105.7 282.1,105.7 283,105.7 
				283.8,105.5 284.7,105.5 285.6,105.5 286.2,105.7 287.1,105.7 287.7,105.7 288.3,105.7 289,105.7 289.6,105.7 290,105.9 
				290.5,105.9 290.9,105.9 291.1,106.1 291.3,106.1 291.5,106.1 291.5,106.3 291.5,106.5 291.3,106.5 291.1,106.7 290.9,106.7 
				290.5,106.7 290,106.9 289.4,106.9 289,107.1 288.3,107.1 			"/>
			<polyline class="st1" points="299,148.7 298.6,148.7 298,148.7 297.5,148.7 296.9,148.7 296.3,148.7 295.6,148.9 295,148.9 
				294.3,148.9 293.7,149 293.1,149 292.4,149 291.8,149 291.1,148.7 290.5,148.8 290.1,148.8 289.4,148.8 289,148.8 288.6,148.8 
				288.1,148.6 287.7,148.6 287.5,148.6 287.3,148.6 287.1,148.3 287.1,148.1 287.3,148.1 287.5,148.1 287.7,147.9 288.1,147.9 
				288.6,147.9 289,147.9 289.4,147.7 290,147.7 290.5,147.7 291.1,147.7 291.8,147.7 292.4,147.7 293,147.7 293.7,147.7 
				294.3,147.7 295,147.7 295.6,147.7 296.3,147.7 296.9,147.7 297.5,147.7 298.2,147.7 298.6,147.7 299,147.9 299.5,147.9 
				299.9,147.9 300.1,147.9 300.3,148.1 300.5,148.1 300.7,148.1 300.7,148.3 300.5,148.3 300.3,148.5 300.1,148.5 299.7,148.5 
				299.5,148.5 299,148.7 			"/>
			<polyline class="st1" points="384.2,123.5 383.5,123.5 382.7,123.7 382,123.7 381.2,123.7 380.3,123.7 379.7,123.7 378.8,123.7 
				378,123.7 377.1,123.7 376.5,123.7 375.6,123.7 375,123.7 374.3,123.7 373.7,123.7 373,123.7 372.4,123.5 372,123.5 371.5,123.5 
				371.3,123.3 370.9,123.3 370.7,123.3 370.7,123.1 370.7,122.9 370.9,122.9 371.3,122.7 371.5,122.7 372,122.5 372.4,122.5 
				373,122.2 373.7,122.2 374.3,122.2 375,122.2 375.6,122 376.5,122 377.3,122 377.9,122 378.8,122 379.7,121.8 380.5,121.8 
				381.4,121.8 382,122 382.9,122 383.5,122 384.1,122 384.8,122 385.4,122 385.9,122.2 386.3,122.2 386.7,122.2 386.9,122.4 
				387.1,122.4 387.4,122.4 387.4,122.6 387.4,122.8 387.1,122.8 386.9,123 386.7,123 386.3,123 385.9,123.3 385.2,123.3 
				384.8,123.5 384.2,123.5 			"/>
			<line class="st2" x1="116.6" y1="55" x2="116.4" y2="45.4"/>
			<line class="st2" x1="479.1" y1="101.6" x2="484.8" y2="104.6"/>
			<line class="st2" x1="485" y1="84.8" x2="418.7" y2="102.8"/>
			<line class="st2" x1="5.4" y1="101.6" x2="38.6" y2="107.1"/>
			<line class="st2" x1="9.6" y1="121.7" x2="5.7" y2="123.7"/>
		</g>
		<line class="st1" x1="295.2" y1="513.8" x2="295.2" y2="167.8"/>
	</g>
	<path class="st1" d="M295.7,403.6"/>
	<path class="st1" d="M292.7,403.7"/>
	<line class="st1" x1="292" y1="515.9" x2="292.3" y2="167.7"/>
	<line class="st1" x1="298.4" y1="167" x2="298.1" y2="516.9"/>
	<line class="st2" x1="298" y1="499.7" x2="479.2" y2="542.9"/>
	<line class="st2" x1="8.7" y1="525.3" x2="292" y2="499.2"/>
	<line class="st1" x1="9.8" y1="177.6" x2="291.9" y2="203.4"/>
	<line class="st1" x1="298.7" y1="203.4" x2="479.1" y2="151.2"/>
	<line class="st1" x1="348.4" y1="152.1" x2="348.4" y2="512"/>
	<path class="st2" d="M292.4,498.8"/>
	<path class="st2" d="M8.8,523.1"/>
	<g>
		<polyline class="st5" points="289.5,394.1 289.4,393.7 289.2,393.4 289,393 288.8,392.8 288.5,392.6 288.3,392.4 288,392.3 
			287.8,392.1 287.6,392 287.2,392 		"/>
		<polyline class="st5" points="287.6,397.4 287.8,397.3 288.2,397.3 288.4,397.2 288.7,397 288.9,396.8 289.1,396.5 289.3,396.2 
			289.5,395.8 289.6,395.5 289.6,395.2 289.6,394.8 289.6,394.5 289.5,394.1 		"/>
		<polyline class="st5" points="19.5,401.1 19.4,400.6 19.3,400.4 19.1,399.9 18.9,399.5 18.8,399.1 18.5,398.9 18.3,398.7 
			18,398.5 17.7,398.4 17.4,398.4 17,398.5 16.8,398.5 16.5,398.8 16.3,399 16.2,399.2 16,399.5 15.8,400 15.7,400.4 15.6,400.7 
			15.6,401.2 15.6,401.7 15.7,402.2 15.8,402.6 15.9,403.1 16,403.5 16.1,404 16.4,404.4 16.7,404.7 16.9,404.9 17.2,405.2 
			17.4,405.3 17.7,405.4 18,405.4 18.2,405.4 18.5,405.3 18.8,405.1 19.1,404.8 19.3,404.6 19.4,404.3 19.5,403.9 19.6,403.5 
			19.6,403.1 19.7,402.6 19.6,402 19.6,401.6 19.5,401.1 		"/>
		<line class="st6" x1="30.2" y1="404.9" x2="18" y2="405.4"/>
		<line class="st6" x1="169.4" y1="401" x2="30.1" y2="404.9"/>
		<line class="st6" x1="279.2" y1="397.6" x2="169.4" y2="401"/>
		<line class="st6" x1="287.6" y1="397.4" x2="279.2" y2="397.6"/>
		<line class="st6" x1="17.4" y1="398.4" x2="287.2" y2="392"/>
	</g>
</g>
<g id="height_lines" class="st7">
	<text transform="matrix(1 0 0 1 -252.8078 892.7081)" class="st9" style="font-family:'ArialMT'; font-size:24px;">D1</text>
	<text transform="matrix(1 0 0 1 -354.3644 335.8492)" class="st9" style="font-family:'ArialMT'; font-size:24px;">H1</text>
	<text transform="matrix(1 0 0 1 774.699 328.8986)" class="st9" style="font-family:'ArialMT'; font-size:24px;">H2</text>
	<line class="st8" x1="-252.8" y1="787.2" x2="-359.3" y2="814.6"/>
	<line class="st8" x1="-42.3" y1="974.8" x2="-144.8" y2="1003.3"/>
	<path class="st8" d="M-341.2,304.4c-0.8-127.2,2.5-294.4,2.5-421.2"/>
	<path class="st8" d="M-336.8,807.1c0-207-5.2-248.9-4.4-455.6"/>
	<line class="st8" x1="-301.5" y1="-111.3" x2="-375" y2="-124.8"/>
	<line class="st8" x1="831.5" y1="-86.4" x2="748.4" y2="-80.5"/>
	<path class="st8" d="M781.3,885.2"/>
	<path class="st8" d="M786.3,846.6c2.9-203.3-3-291.5-0.7-490.9"/>
	<text transform="matrix(1 0 0 1 400.9891 951.006)" class="st9" style="font-family:'ArialMT'; font-size:24px;">W1</text>
	<path class="st8" d="M-288.8-110.8"/>
	<path class="st8" d="M135.2-186.8"/>
	<line class="st8" x1="16.2" y1="993.7" x2="98.1" y2="1055.6"/>
	<line class="st8" x1="746.8" y1="836.9" x2="835.3" y2="859.4"/>
	<line class="st8" x1="787.2" y1="-83.3" x2="787.2" y2="286.2"/>
	<line class="st8" x1="-336.8" y1="807.1" x2="-263.8" y2="859.1"/>
	<line class="st8" x1="-214.8" y1="902.5" x2="-105" y2="992.2"/>
	<line class="st8" x1="786.3" y1="848.1" x2="443" y2="932.2"/>
	<line class="st8" x1="52.2" y1="1018.6" x2="389" y2="947.4"/>
</g>
<g id="numbers" class="st7">
	<g class="st9">
		<line class="st10" x1="354.7" y1="782.5" x2="448.4" y2="725.3"/>
		<line class="st10" x1="297.6" y1="778.1" x2="195.6" y2="720.8"/>
		<line class="st10" x1="477.6" y1="124.4" x2="357.4" y2="181"/>
		<line class="st10" x1="130.4" y1="102.2" x2="195" y2="155"/>
		<line class="st10" x1="79.5" y1="101.2" x2="15.5" y2="145.4"/>
		<path class="st10" d="M105.2,117.5c15.7,0,28.4-12.7,28.4-28.4c0-15.7-12.7-28.4-28.4-28.4S76.8,73.4,76.8,89.1
			C76.9,104.9,89.6,117.5,105.2,117.5z"/>
		<text transform="matrix(1 0 0 1 98.2772 100.0831)" class="st11 st12">3</text>
		
			<ellipse transform="matrix(0.9753 -0.221 0.221 0.9753 43.8368 -24.3223)" class="st13" cx="-86.8" cy="-208.1" rx="28.4" ry="28.4"/>
		<text transform="matrix(1 0 0 1 -94.7082 -197.1962)" class="st11 st12">4</text>
		<path class="st14" d="M326.4,810.8c15.7,0,28.4-12.7,28.4-28.4S342.1,754,326.4,754S298,766.7,298,782.4S310.7,810.8,326.4,810.8z
			"/>
		<text transform="matrix(1 0 0 1 317.4207 793.3829)" class="st11 st12">1</text>
		<circle class="st10" cx="498.1" cy="104.8" r="28.4"/>
		<text transform="matrix(1 0 0 1 490.1961 115.089)" class="st11 st12">2</text>
		<path class="st10" d="M432.5-140.7c15.7,0,28.4-12.7,28.4-28.4s-12.7-28.4-28.4-28.4s-28.4,12.7-28.4,28.4
			C404.1-153.4,416.8-140.7,432.5-140.7z"/>
		<text transform="matrix(1 0 0 1 424.5379 -158.1278)" class="st11 st12">5</text>
		<line class="st10" x1="411.1" y1="-149.5" x2="332.2" y2="-109.8"/>
		<line class="st10" x1="-59.7" y1="-197.9" x2="24.5" y2="-154"/>
		
			<ellipse transform="matrix(0.634 -0.7733 0.7733 0.634 -357.3003 19.5313)" class="st15" cx="-158" cy="387.2" rx="28.4" ry="28.4"/>
		<text transform="matrix(1 0 0 1 -164.9386 398.1232)" class="st11 st12">6</text>
		<line class="st10" x1="-40" y1="478.7" x2="-135.4" y2="406.8"/>
	</g>
</g>
<g id="letters" class="st7">
	<g class="st9">
		<rect x="-617.2" y="619.8" class="st10" width="50" height="50"/>
		<g>
			<rect x="-616.3" y="630.8" class="st6" width="48.2" height="31.2"/>
			<text transform="matrix(1 0 0 1 -601.6369 653.5065)" class="st11 st18">B</text>
		</g>
	</g>
	<g class="st9">
		<rect x="-27.8" y="-15.6" class="st16" width="50" height="50"/>
		<g>
			<rect x="-26.9" y="-4.5" class="st6" width="48.2" height="31.2"/>
			<text transform="matrix(1 0 0 1 -12.3058 18.1485)" class="st17 st11 st18">A</text>
		</g>
	</g>
	<g class="st9">
		<rect x="-617.8" y="829.2" class="st10" width="50" height="50"/>
		<g>
			<rect x="-616.9" y="840.3" class="st6" width="48.2" height="31.2"/>
			<text transform="matrix(1 0 0 1 -602.2892 862.9615)" class="st11 st18">B</text>
		</g>
	</g>
	<g class="st9">
		<rect x="250.7" y="14.8" class="st10" width="50" height="50"/>
		<g>
			<rect x="251.6" y="25.8" class="st6" width="48.2" height="31.2"/>
			<text transform="matrix(1 0 0 1 266.2332 48.5392)" class="st11 st18">B</text>
		</g>
	</g>
	<g class="st9">
		<rect x="-29.2" y="74.4" class="st16" width="50" height="50"/>
		<g>
			<rect x="-28.3" y="85.4" class="st6" width="48.2" height="31.2"/>
			<text transform="matrix(1 0 0 1 -13.6393 108.0958)" class="st17 st11 st18">A</text>
		</g>
	</g>
	<g class="st9">
		<rect x="-28.2" y="168.3" class="st16" width="50" height="50"/>
		<g>
			<rect x="-27.3" y="179.3" class="st6" width="48.2" height="31.2"/>
			<text transform="matrix(1 0 0 1 -12.6393 201.9855)" class="st17 st11 st18">A</text>
		</g>
	</g>
	<g class="st9">
		<rect x="-27.8" y="262.4" class="st16" width="50" height="50"/>
		<g>
			<rect x="-26.9" y="273.5" class="st6" width="48.2" height="31.2"/>
			<text transform="matrix(1 0 0 1 -12.3058 296.1486)" class="st17 st11 st18">A</text>
		</g>
	</g>
	<g class="st9">
		<rect x="-27.3" y="356.7" class="st16" width="50" height="50"/>
		<g>
			<rect x="-26.4" y="367.8" class="st6" width="48.2" height="31.2"/>
			<text transform="matrix(1 0 0 1 -11.7648 390.4777)" class="st17 st11 st18">A</text>
		</g>
	</g>
	<g class="st9">
		<rect x="-27.3" y="552.4" class="st16" width="50" height="50"/>
		<g>
			<rect x="-26.4" y="563.5" class="st6" width="48.2" height="31.2"/>
			<text transform="matrix(1 0 0 1 -11.7648 586.1486)" class="st17 st11 st18">A</text>
		</g>
	</g>
	<g class="st9">
		<rect x="-27.3" y="648" class="st16" width="50" height="50"/>
		<g>
			<rect x="-26.4" y="659.1" class="st6" width="48.2" height="31.2"/>
			<text transform="matrix(1 0 0 1 -11.7668 681.7687)" class="st17 st11 st18">A</text>
		</g>
	</g>
	<g class="st9">
		<rect x="560.7" y="667.1" class="st16" width="50" height="50"/>
		<g>
			<rect x="561.6" y="678.1" class="st6" width="48.2" height="31.2"/>
			<text transform="matrix(1 0 0 1 576.2332 700.8029)" class="st17 st11 st18">A</text>
		</g>
	</g>
	<g class="st9">
		<rect x="560.7" y="565" class="st16" width="50" height="50"/>
		<g>
			<rect x="561.6" y="576" class="st6" width="48.2" height="31.2"/>
			<text transform="matrix(1 0 0 1 576.2332 598.7404)" class="st17 st11 st18">A</text>
		</g>
	</g>
	<g class="st9">
		<rect x="560.7" y="460.2" class="st16" width="50" height="50"/>
		<g>
			<rect x="561.6" y="471.3" class="st6" width="48.2" height="31.2"/>
			<text transform="matrix(1 0 0 1 576.2332 493.9552)" class="st17 st11 st18">A</text>
		</g>
	</g>
	<g class="st9">
		<rect x="560.7" y="360.1" class="st16" width="50" height="50"/>
		<g>
			<rect x="561.6" y="371.2" class="st6" width="48.2" height="31.2"/>
			<text transform="matrix(1 0 0 1 576.2332 393.8722)" class="st17 st11 st18">A</text>
		</g>
	</g>
	<g class="st9">
		<rect x="560.7" y="255.7" class="st16" width="50" height="50"/>
		<g>
			<rect x="561.6" y="266.8" class="st6" width="48.2" height="31.2"/>
			<text transform="matrix(1 0 0 1 576.2352 289.4503)" class="st17 st11 st18">A</text>
		</g>
	</g>
	<g class="st9">
		<rect x="560.7" y="150" class="st16" width="50" height="50"/>
		<g>
			<rect x="561.6" y="161.1" class="st6" width="48.2" height="31.2"/>
			<text transform="matrix(1 0 0 1 576.2332 183.7442)" class="st17 st11 st18">A</text>
		</g>
	</g>
	<g class="st9">
		<rect x="560.7" y="48.2" class="st16" width="50" height="50"/>
		<g>
			<rect x="561.6" y="59.2" class="st6" width="48.2" height="31.2"/>
			<text transform="matrix(1 0 0 1 576.2332 81.9171)" class="st17 st11 st18">A</text>
		</g>
	</g>
	<g class="st9">
		<rect x="560" y="-44.6" class="st16" width="50" height="50"/>
		<g>
			<rect x="560.9" y="-33.6" class="st6" width="48.2" height="31.2"/>
			<text transform="matrix(1 0 0 1 575.5662 -10.9032)" class="st17 st11 st18">A</text>
		</g>
	</g>
	<g class="st9">
		<rect x="250.7" y="94.2" class="st10" width="50" height="50"/>
		<g>
			<rect x="251.6" y="105.2" class="st6" width="48.2" height="31.2"/>
			<text transform="matrix(1 0 0 1 266.2352 127.923)" class="st11 st18">B</text>
		</g>
	</g>
	<g class="st9">
		<rect x="250.7" y="178.7" class="st10" width="50" height="50"/>
		<g>
			<rect x="251.6" y="189.7" class="st6" width="48.2" height="31.2"/>
			<text transform="matrix(1 0 0 1 266.2352 212.3858)" class="st11 st18">B</text>
		</g>
	</g>
	<g class="st9">
		<rect x="250.7" y="265.9" class="st10" width="50" height="50"/>
		<g>
			<rect x="251.6" y="277" class="st6" width="48.2" height="31.2"/>
			<text transform="matrix(1 0 0 1 266.2352 299.6808)" class="st11 st18">B</text>
		</g>
	</g>
	<g class="st9">
		<rect x="250.7" y="356.7" class="st10" width="50" height="50"/>
		<g>
			<rect x="251.6" y="367.8" class="st6" width="48.2" height="31.2"/>
			<text transform="matrix(1 0 0 1 266.2357 390.4777)" class="st11 st18">B</text>
		</g>
	</g>
	<g class="st9">
		<rect x="251.4" y="535.9" class="st10" width="50" height="50"/>
		<g>
			<rect x="252.3" y="547" class="st6" width="48.2" height="31.2"/>
			<text transform="matrix(1 0 0 1 266.9422 569.6603)" class="st11 st18">B</text>
		</g>
	</g>
	<g class="st9">
		<rect x="250.7" y="625.8" class="st10" width="50" height="50"/>
		<g>
			<rect x="251.6" y="636.8" class="st6" width="48.2" height="31.2"/>
			<text transform="matrix(1 0 0 1 266.2352 659.4855)" class="st11 st18">B</text>
		</g>
	</g>
	<g class="st9">
		<rect x="382.7" y="629" class="st10" width="50" height="50"/>
		<g>
			<rect x="383.6" y="640" class="st6" width="48.2" height="31.2"/>
			<text transform="matrix(1 0 0 1 398.2352 662.712)" class="st11 st18">B</text>
		</g>
	</g>
	<g class="st9">
		<rect x="382.7" y="538.6" class="st10" width="50" height="50"/>
		<g>
			<rect x="383.6" y="549.6" class="st6" width="48.2" height="31.2"/>
			<text transform="matrix(1 0 0 1 398.2332 572.3273)" class="st11 st18">B</text>
		</g>
	</g>
	<g class="st9">
		<rect x="382.7" y="447" class="st10" width="50" height="50"/>
		<g>
			<rect x="383.6" y="458" class="st6" width="48.2" height="31.2"/>
			<text transform="matrix(1 0 0 1 398.2352 480.715)" class="st11 st18">B</text>
		</g>
	</g>
	<g class="st9">
		<rect x="382.7" y="356.6" class="st10" width="50" height="50"/>
		<g>
			<rect x="383.6" y="367.7" class="st6" width="48.2" height="31.2"/>
			<text transform="matrix(1 0 0 1 398.2352 390.3429)" class="st11 st18">B</text>
		</g>
	</g>
	<g class="st9">
		<rect x="382.7" y="264.9" class="st10" width="50" height="50"/>
		<g>
			<rect x="383.6" y="276" class="st6" width="48.2" height="31.2"/>
			<text transform="matrix(1 0 0 1 398.2313 298.6808)" class="st11 st18">B</text>
		</g>
	</g>
	<g class="st9">
		<rect x="382.7" y="173.9" class="st10" width="50" height="50"/>
		<g>
			<rect x="383.6" y="184.9" class="st6" width="48.2" height="31.2"/>
			<text transform="matrix(1 0 0 1 398.2332 207.6095)" class="st11 st18">B</text>
		</g>
	</g>
	<g class="st9">
		<rect x="383.5" y="89.8" class="st10" width="50" height="50"/>
		<g>
			<rect x="384.4" y="100.9" class="st6" width="48.2" height="31.2"/>
			<text transform="matrix(1 0 0 1 399.0125 123.5743)" class="st11 st18">B</text>
		</g>
	</g>
	<g class="st9">
		<rect x="382.7" y="8.6" class="st10" width="50" height="50"/>
		<g>
			<rect x="383.6" y="19.6" class="st6" width="48.2" height="31.2"/>
			<text transform="matrix(1 0 0 1 398.2293 42.2931)" class="st11 st18">B</text>
		</g>
	</g>
</g>
</svg>
